G04*
G04 #@! TF.GenerationSoftware,Altium Limited,Altium Designer,19.1.5 (86)*
G04*
G04 Layer_Color=32768*
%FSLAX25Y25*%
%MOIN*%
G70*
G01*
G75*
%ADD10C,0.00394*%
%ADD72C,0.00197*%
D10*
X594162Y295438D02*
X639438D01*
Y250162D02*
Y295438D01*
X594162Y250162D02*
X639438D01*
X594162D02*
Y295438D01*
X565103Y313400D02*
X569040D01*
X567072Y311432D02*
Y315369D01*
X470444Y201080D02*
Y208560D01*
X454696Y201080D02*
Y208560D01*
Y201080D02*
X470444D01*
X454696Y208560D02*
X470444D01*
X460602Y204820D02*
X464539D01*
X462570Y202852D02*
Y206789D01*
X633930Y318900D02*
X637670D01*
X635800Y317030D02*
Y320770D01*
X637965Y314176D02*
Y323624D01*
X633635Y314176D02*
Y323624D01*
X637965D01*
X633635Y314176D02*
X637965D01*
X543535Y200824D02*
X547865D01*
X543535Y191376D02*
X547865D01*
Y200824D01*
X543535Y191376D02*
Y200824D01*
X545700Y194230D02*
Y197970D01*
X543830Y196100D02*
X547570D01*
X633735Y312324D02*
X638065D01*
X633735Y302876D02*
X638065D01*
Y312324D01*
X633735Y302876D02*
Y312324D01*
X635900Y305730D02*
Y309470D01*
X634030Y307600D02*
X637770D01*
X637838Y191709D02*
Y236985D01*
X592562D02*
X637838D01*
X592562Y191709D02*
Y236985D01*
Y191709D02*
X637838D01*
X620200Y319731D02*
Y323669D01*
X618231Y321700D02*
X622168D01*
X612326Y325440D02*
X628074D01*
X612326Y317960D02*
X628074D01*
X612326D02*
Y325440D01*
X628074Y317960D02*
Y325440D01*
X402516Y253056D02*
X406453D01*
X404484Y251087D02*
Y255024D01*
X408224Y245182D02*
Y260930D01*
X400744Y245182D02*
Y260930D01*
X408224D01*
X400744Y245182D02*
X408224D01*
X392616Y253056D02*
X396552D01*
X394584Y251087D02*
Y255024D01*
X398324Y245182D02*
Y260930D01*
X390844Y245182D02*
Y260930D01*
X398324D01*
X390844Y245182D02*
X398324D01*
X404615Y220376D02*
X408553D01*
X406584Y218408D02*
Y222345D01*
X410324Y212502D02*
Y228250D01*
X402844Y212502D02*
Y228250D01*
X410324D01*
X402844Y212502D02*
X410324D01*
X395415Y220276D02*
X399353D01*
X397384Y218308D02*
Y222245D01*
X401124Y212402D02*
Y228150D01*
X393644Y212402D02*
Y228150D01*
X401124D01*
X393644Y212402D02*
X401124D01*
X433284Y272808D02*
Y276745D01*
X431316Y274776D02*
X435253D01*
X425410Y271036D02*
X441158D01*
X425410Y278516D02*
X441158D01*
Y271036D02*
Y278516D01*
X425410Y271036D02*
Y278516D01*
X433484Y281908D02*
Y285845D01*
X431516Y283876D02*
X435453D01*
X425610Y280136D02*
X441358D01*
X425610Y287616D02*
X441358D01*
Y280136D02*
Y287616D01*
X425610Y280136D02*
Y287616D01*
X462570Y193108D02*
Y197045D01*
X460602Y195076D02*
X464539D01*
X454696Y198816D02*
X470444D01*
X454696Y191336D02*
X470444D01*
X454696D02*
Y198816D01*
X470444Y191336D02*
Y198816D01*
X475815Y260745D02*
X479752D01*
X477784Y258776D02*
Y262713D01*
X474044Y252871D02*
Y268619D01*
X481524Y252871D02*
Y268619D01*
X474044Y252871D02*
X481524D01*
X474044Y268619D02*
X481524D01*
X486215Y260776D02*
X490153D01*
X488184Y258808D02*
Y262745D01*
X484444Y252902D02*
Y268650D01*
X491924Y252902D02*
Y268650D01*
X484444Y252902D02*
X491924D01*
X484444Y268650D02*
X491924D01*
X602500Y241231D02*
Y245168D01*
X600531Y243200D02*
X604468D01*
X594626Y246940D02*
X610374D01*
X594626Y239460D02*
X610374D01*
X594626D02*
Y246940D01*
X610374Y239460D02*
Y246940D01*
X432631Y431700D02*
X436568D01*
X434600Y429732D02*
Y433669D01*
X438340Y423826D02*
Y439574D01*
X430860Y423826D02*
Y439574D01*
X438340D01*
X430860Y423826D02*
X438340D01*
X448431Y431700D02*
X452368D01*
X450400Y429732D02*
Y433669D01*
X454140Y423826D02*
Y439574D01*
X446660Y423826D02*
Y439574D01*
X454140D01*
X446660Y423826D02*
X454140D01*
X626800Y241231D02*
Y245168D01*
X624831Y243200D02*
X628768D01*
X618926Y239460D02*
X634674D01*
X618926Y246940D02*
X634674D01*
Y239460D02*
Y246940D01*
X618926Y239460D02*
Y246940D01*
X589532Y312385D02*
X593469D01*
X591500Y310417D02*
Y314353D01*
X595240Y304511D02*
Y320259D01*
X587760Y304511D02*
Y320259D01*
X595240D01*
X587760Y304511D02*
X595240D01*
X598732Y312300D02*
X602669D01*
X600700Y310332D02*
Y314268D01*
X604440Y304426D02*
Y320174D01*
X596960Y304426D02*
Y320174D01*
X604440D01*
X596960Y304426D02*
X604440D01*
X539418Y312200D02*
X543355D01*
X541386Y310231D02*
Y314169D01*
X545126Y304326D02*
Y320074D01*
X537646Y304326D02*
Y320074D01*
X545126D01*
X537646Y304326D02*
X545126D01*
X529118Y312000D02*
X533055D01*
X531086Y310032D02*
Y313968D01*
X534826Y304126D02*
Y319874D01*
X527346Y304126D02*
Y319874D01*
X534826D01*
X527346Y304126D02*
X534826D01*
D72*
X415030Y266737D02*
X467983D01*
X415030Y213784D02*
Y266737D01*
Y213784D02*
X467983D01*
Y266737D01*
X308134Y185942D02*
X367406D01*
X308134D02*
Y318658D01*
X367406D01*
Y185942D02*
Y318658D01*
X552505Y302573D02*
X581639D01*
X552505Y324227D02*
X581639D01*
Y302573D02*
Y324227D01*
X552505Y302573D02*
Y324227D01*
M02*
