G04*
G04 #@! TF.GenerationSoftware,Altium Limited,Altium Designer,19.1.5 (86)*
G04*
G04 Layer_Color=16711935*
%FSLAX25Y25*%
%MOIN*%
G70*
G01*
G75*
%ADD33C,0.07296*%
%ADD34C,0.08800*%
%ADD35C,0.08300*%
%ADD36R,0.07887X0.07887*%
%ADD37C,0.07887*%
%ADD38C,0.08083*%
%ADD39R,0.08083X0.08083*%
%ADD40R,0.08800X0.08800*%
%ADD41O,0.05524X0.07493*%
%ADD42O,0.06312X0.05328*%
%ADD43C,0.07800*%
%ADD44R,0.07800X0.07800*%
%ADD45C,0.11800*%
%ADD46C,0.06706*%
%ADD47R,0.06706X0.06706*%
%ADD48R,0.06706X0.06706*%
%ADD49O,0.16548X0.13398*%
%ADD50C,0.02800*%
D33*
X606800Y272800D02*
D03*
X626800D02*
D03*
X605200Y214347D02*
D03*
X625200D02*
D03*
D34*
X668800Y291022D02*
D03*
Y279211D02*
D03*
Y267400D02*
D03*
Y255589D02*
D03*
Y243778D02*
D03*
Y231967D02*
D03*
Y220156D02*
D03*
Y208345D02*
D03*
Y196534D02*
D03*
X505100Y272500D02*
D03*
Y262500D02*
D03*
Y252500D02*
D03*
Y242500D02*
D03*
Y232500D02*
D03*
X575100Y272500D02*
D03*
Y262500D02*
D03*
Y252500D02*
D03*
Y242500D02*
D03*
D35*
X676517Y184723D02*
D03*
Y302833D02*
D03*
D36*
X361500Y207300D02*
D03*
D37*
X351500D02*
D03*
X361500Y217300D02*
D03*
X351500D02*
D03*
X361500Y227300D02*
D03*
X351500D02*
D03*
X361500Y237300D02*
D03*
X351500D02*
D03*
X361500Y247300D02*
D03*
X351500D02*
D03*
X361500Y257300D02*
D03*
X351500D02*
D03*
X361500Y267300D02*
D03*
X351500D02*
D03*
X361500Y277300D02*
D03*
X351500D02*
D03*
X361500Y287300D02*
D03*
X351500D02*
D03*
X361500Y297300D02*
D03*
X351500D02*
D03*
D38*
X464302Y302691D02*
D03*
D39*
X444302D02*
D03*
D40*
X505100Y282500D02*
D03*
D41*
X539380Y180821D02*
D03*
X511821D02*
D03*
D42*
X535442Y192239D02*
D03*
X515758D02*
D03*
D43*
X645200Y181200D02*
D03*
X635200D02*
D03*
X625200D02*
D03*
X615200D02*
D03*
X605200D02*
D03*
X595200D02*
D03*
X585200D02*
D03*
X575200D02*
D03*
X565200D02*
D03*
D44*
X555200D02*
D03*
D45*
X432400Y454300D02*
D03*
X352400D02*
D03*
D46*
X372400Y338300D02*
D03*
X432400D02*
D03*
X422400D02*
D03*
X412400D02*
D03*
X402400D02*
D03*
X392400D02*
D03*
X382400D02*
D03*
X362400D02*
D03*
X463980Y366942D02*
D03*
X473980D02*
D03*
X463980Y376942D02*
D03*
X473980D02*
D03*
X463980Y386942D02*
D03*
X473980D02*
D03*
X463980Y396942D02*
D03*
X473980D02*
D03*
X463980Y406942D02*
D03*
X473980D02*
D03*
X463980Y416942D02*
D03*
X473980D02*
D03*
X463980Y426942D02*
D03*
X473980D02*
D03*
X463980Y436942D02*
D03*
D47*
X352400Y338300D02*
D03*
D48*
X473980Y436942D02*
D03*
D49*
X537327Y449527D02*
D03*
X536972Y354362D02*
D03*
X684000Y402000D02*
D03*
D50*
X500500Y290300D02*
D03*
X480400Y273600D02*
D03*
X494800Y289400D02*
D03*
X509800Y315800D02*
D03*
X473000Y231700D02*
D03*
X456270Y222728D02*
D03*
X429411D02*
D03*
X450000Y206200D02*
D03*
X430412Y237308D02*
D03*
X425900Y226927D02*
D03*
Y254100D02*
D03*
X444836Y239441D02*
D03*
X432700Y227300D02*
D03*
X413000Y233400D02*
D03*
X452342Y241796D02*
D03*
X481800Y212027D02*
D03*
X468793Y253056D02*
D03*
X441911Y234500D02*
D03*
X440240Y208050D02*
D03*
X447384Y209100D02*
D03*
X484300Y221500D02*
D03*
X491100Y195300D02*
D03*
X436419Y243047D02*
D03*
X475700Y215700D02*
D03*
X470411Y225426D02*
D03*
X477784Y249119D02*
D03*
X639922Y304647D02*
D03*
X640957Y321853D02*
D03*
X588700Y282800D02*
D03*
X548100Y282500D02*
D03*
X551000Y305900D02*
D03*
X503600Y201800D02*
D03*
X500500Y199100D02*
D03*
X614800Y272800D02*
D03*
X496500Y224100D02*
D03*
M02*
