G04*
G04 #@! TF.GenerationSoftware,Altium Limited,Altium Designer,19.1.5 (86)*
G04*
G04 Layer_Color=255*
%FSLAX25Y25*%
%MOIN*%
G70*
G01*
G75*
%ADD54C,0.06496*%
%ADD55C,0.08000*%
%ADD56C,0.07500*%
%ADD57R,0.07087X0.07087*%
%ADD58C,0.07087*%
%ADD59C,0.07284*%
%ADD60R,0.07284X0.07284*%
%ADD61R,0.08000X0.08000*%
%ADD62O,0.04724X0.06693*%
%ADD63O,0.05512X0.04528*%
%ADD64C,0.07000*%
%ADD65R,0.07000X0.07000*%
%ADD66C,0.11000*%
%ADD67C,0.05906*%
%ADD68R,0.05906X0.05906*%
%ADD69R,0.05906X0.05906*%
%ADD70O,0.15748X0.12598*%
D54*
X606800Y272800D02*
D03*
X626800D02*
D03*
X605200Y214347D02*
D03*
X625200D02*
D03*
D55*
X668800Y291022D02*
D03*
Y279211D02*
D03*
Y267400D02*
D03*
Y255589D02*
D03*
Y243778D02*
D03*
Y231967D02*
D03*
Y220156D02*
D03*
Y208345D02*
D03*
Y196534D02*
D03*
X505100Y272500D02*
D03*
Y262500D02*
D03*
Y252500D02*
D03*
Y242500D02*
D03*
Y232500D02*
D03*
X575100Y272500D02*
D03*
Y262500D02*
D03*
Y252500D02*
D03*
Y242500D02*
D03*
D56*
X676517Y184723D02*
D03*
Y302833D02*
D03*
D57*
X361500Y207300D02*
D03*
D58*
X351500D02*
D03*
X361500Y217300D02*
D03*
X351500D02*
D03*
X361500Y227300D02*
D03*
X351500D02*
D03*
X361500Y237300D02*
D03*
X351500D02*
D03*
X361500Y247300D02*
D03*
X351500D02*
D03*
X361500Y257300D02*
D03*
X351500D02*
D03*
X361500Y267300D02*
D03*
X351500D02*
D03*
X361500Y277300D02*
D03*
X351500D02*
D03*
X361500Y287300D02*
D03*
X351500D02*
D03*
X361500Y297300D02*
D03*
X351500D02*
D03*
D59*
X464302Y302691D02*
D03*
D60*
X444302D02*
D03*
D61*
X505100Y282500D02*
D03*
D62*
X539380Y180821D02*
D03*
X511821D02*
D03*
D63*
X535442Y192239D02*
D03*
X515758D02*
D03*
D64*
X645200Y181200D02*
D03*
X635200D02*
D03*
X625200D02*
D03*
X615200D02*
D03*
X605200D02*
D03*
X595200D02*
D03*
X585200D02*
D03*
X575200D02*
D03*
X565200D02*
D03*
D65*
X555200D02*
D03*
D66*
X432400Y454300D02*
D03*
X352400D02*
D03*
D67*
X372400Y338300D02*
D03*
X432400D02*
D03*
X422400D02*
D03*
X412400D02*
D03*
X402400D02*
D03*
X392400D02*
D03*
X382400D02*
D03*
X362400D02*
D03*
X463980Y366942D02*
D03*
X473980D02*
D03*
X463980Y376942D02*
D03*
X473980D02*
D03*
X463980Y386942D02*
D03*
X473980D02*
D03*
X463980Y396942D02*
D03*
X473980D02*
D03*
X463980Y406942D02*
D03*
X473980D02*
D03*
X463980Y416942D02*
D03*
X473980D02*
D03*
X463980Y426942D02*
D03*
X473980D02*
D03*
X463980Y436942D02*
D03*
D68*
X352400Y338300D02*
D03*
D69*
X473980Y436942D02*
D03*
D70*
X537327Y449527D02*
D03*
X536972Y354362D02*
D03*
X684000Y402000D02*
D03*
M02*
