G04*
G04 #@! TF.GenerationSoftware,Altium Limited,Altium Designer,19.1.5 (86)*
G04*
G04 Layer_Color=16711935*
%FSLAX25Y25*%
%MOIN*%
G70*
G01*
G75*
%ADD10C,0.00394*%
%ADD12C,0.00500*%
%ADD13C,0.00787*%
D10*
X459223Y259945D02*
X461191Y257977D01*
X421821Y259945D02*
X461191D01*
X421821Y220575D02*
Y259945D01*
Y220575D02*
X461191D01*
Y259945D01*
X309118Y186926D02*
X344551D01*
X309118D02*
Y317674D01*
X344551D01*
Y186926D02*
Y317674D01*
X469263Y201277D02*
Y208364D01*
X455877Y201277D02*
Y208364D01*
Y201277D02*
X469263D01*
X455877Y208364D02*
X469263D01*
X637670Y315553D02*
Y322247D01*
X633930Y315553D02*
Y322247D01*
X637670D01*
X633930Y315553D02*
X637670D01*
X543830Y199446D02*
X547570D01*
X543830Y192754D02*
X547570D01*
Y199446D01*
X543830Y192754D02*
Y199446D01*
X634030Y310946D02*
X637770D01*
X634030Y304254D02*
X637770D01*
Y310946D01*
X634030Y304254D02*
Y310946D01*
X613507Y325243D02*
X626893D01*
X613507Y318157D02*
X626893D01*
X613507D02*
Y325243D01*
X626893Y318157D02*
Y325243D01*
X408027Y246363D02*
Y259749D01*
X400941Y246363D02*
Y259749D01*
X408027D01*
X400941Y246363D02*
X408027D01*
X398127D02*
Y259749D01*
X391041Y246363D02*
Y259749D01*
X398127D01*
X391041Y246363D02*
X398127D01*
X410127Y213683D02*
Y227069D01*
X403041Y213683D02*
Y227069D01*
X410127D01*
X403041Y213683D02*
X410127D01*
X400927Y213583D02*
Y226969D01*
X393841Y213583D02*
Y226969D01*
X400927D01*
X393841Y213583D02*
X400927D01*
X426591Y271233D02*
X439977D01*
X426591Y278320D02*
X439977D01*
Y271233D02*
Y278320D01*
X426591Y271233D02*
Y278320D01*
X426791Y280333D02*
X440177D01*
X426791Y287420D02*
X440177D01*
Y280333D02*
Y287420D01*
X426791Y280333D02*
Y287420D01*
X455877Y198619D02*
X469263D01*
X455877Y191533D02*
X469263D01*
X455877D02*
Y198619D01*
X469263Y191533D02*
Y198619D01*
X474241Y254052D02*
Y267438D01*
X481327Y254052D02*
Y267438D01*
X474241Y254052D02*
X481327D01*
X474241Y267438D02*
X481327D01*
X484641Y254083D02*
Y267469D01*
X491727Y254083D02*
Y267469D01*
X484641Y254083D02*
X491727D01*
X484641Y267469D02*
X491727D01*
X595807Y246743D02*
X609193D01*
X595807Y239657D02*
X609193D01*
X595807D02*
Y246743D01*
X609193Y239657D02*
Y246743D01*
X438143Y425007D02*
Y438393D01*
X431057Y425007D02*
Y438393D01*
X438143D01*
X431057Y425007D02*
X438143D01*
X453943D02*
Y438393D01*
X446857Y425007D02*
Y438393D01*
X453943D01*
X446857Y425007D02*
X453943D01*
X620107Y239657D02*
X633493D01*
X620107Y246743D02*
X633493D01*
Y239657D02*
Y246743D01*
X620107Y239657D02*
Y246743D01*
X595043Y305692D02*
Y319078D01*
X587957Y305692D02*
Y319078D01*
X595043D01*
X587957Y305692D02*
X595043D01*
X604243Y305607D02*
Y318993D01*
X597157Y305607D02*
Y318993D01*
X604243D01*
X597157Y305607D02*
X604243D01*
X544930Y305507D02*
Y318893D01*
X537843Y305507D02*
Y318893D01*
X544930D01*
X537843Y305507D02*
X544930D01*
X534629Y305307D02*
Y318693D01*
X527543Y305307D02*
Y318693D01*
X534629D01*
X527543Y305307D02*
X534629D01*
D12*
X564887Y320696D02*
G03*
X564887Y315996I0J-2350D01*
G01*
X559387Y304251D02*
G03*
X559883Y303754I500J4D01*
G01*
X564887Y315996D02*
G03*
X564887Y320696I0J2350D01*
G01*
X574245Y303754D02*
G03*
X574741Y304251I-4J500D01*
G01*
X559883Y323046D02*
G03*
X559387Y322549I4J-500D01*
G01*
X574741D02*
G03*
X574245Y323046I-500J-4D01*
G01*
X574241Y303754D02*
X574245D01*
X559883D02*
X559887D01*
X565765D01*
X566355D01*
X559883Y323046D02*
X559887D01*
X566355Y303754D02*
X567772D01*
X568363D02*
X574241D01*
X559387Y304251D02*
Y304254D01*
X568363Y323046D02*
X574241D01*
X574741Y304251D02*
Y304254D01*
X566355Y323046D02*
X567772D01*
X559887D02*
X565765D01*
X574741Y304254D02*
Y322546D01*
X567772Y323046D02*
X568363D01*
X559387Y322546D02*
Y322549D01*
X574741Y322546D02*
Y322549D01*
X559387Y304254D02*
Y322546D01*
X565765Y323046D02*
X566355D01*
X567772Y303754D02*
X568363D01*
X574241Y323046D02*
X574245D01*
X555253Y305152D02*
Y306648D01*
Y305152D02*
X556878D01*
Y306648D02*
X557720D01*
Y305152D02*
X559216D01*
X557720Y306648D02*
X559216D01*
Y305152D02*
X559387D01*
X555253Y306648D02*
X556878D01*
Y305152D02*
X557720D01*
X559216Y306648D02*
X559387D01*
Y305152D02*
Y306648D01*
X557720Y305152D02*
Y306648D01*
X555253Y310152D02*
Y311648D01*
Y310152D02*
X556878D01*
Y311648D02*
X557720D01*
Y310152D02*
X559216D01*
X557720Y311648D02*
X559216D01*
Y310152D02*
X559387D01*
X555253Y311648D02*
X556878D01*
Y310152D02*
X557720D01*
X559216Y311648D02*
X559387D01*
Y310152D02*
Y311648D01*
X557720Y310152D02*
Y311648D01*
X555253Y315152D02*
Y316648D01*
Y315152D02*
X556878D01*
Y316648D02*
X557720D01*
Y315152D02*
X559216D01*
X557720Y316648D02*
X559216D01*
Y315152D02*
X559387D01*
X555253Y316648D02*
X556878D01*
Y315152D02*
X557720D01*
X559216Y316648D02*
X559387D01*
Y315152D02*
Y316648D01*
X557720Y315152D02*
Y316648D01*
X555253Y320152D02*
Y321648D01*
Y320152D02*
X556878D01*
Y321648D02*
X557720D01*
Y320152D02*
X559216D01*
X557720Y321648D02*
X559216D01*
Y320152D02*
X559387D01*
X555253Y321648D02*
X556878D01*
Y320152D02*
X557720D01*
X559216Y321648D02*
X559387D01*
Y320152D02*
Y321648D01*
X557720Y320152D02*
Y321648D01*
X578875Y305152D02*
Y306648D01*
X577250D02*
X578875D01*
X576407Y305152D02*
X577250D01*
X574911Y306648D02*
X576407D01*
X574911Y305152D02*
X576407D01*
X574741Y306648D02*
X574911D01*
X577250Y305152D02*
X578875D01*
X576407Y306648D02*
X577250D01*
X574741Y305152D02*
X574911D01*
X574741D02*
Y306648D01*
X576407Y305152D02*
Y306648D01*
X578875Y310152D02*
Y311648D01*
X577250D02*
X578875D01*
X576407Y310152D02*
X577250D01*
X574911Y311648D02*
X576407D01*
X574911Y310152D02*
X576407D01*
X574741Y311648D02*
X574911D01*
X577250Y310152D02*
X578875D01*
X576407Y311648D02*
X577250D01*
X574741Y310152D02*
X574911D01*
X574741D02*
Y311648D01*
X576407Y310152D02*
Y311648D01*
X578875Y315152D02*
Y316648D01*
X577250D02*
X578875D01*
X576407Y315152D02*
X577250D01*
X574911Y316648D02*
X576407D01*
X574911Y315152D02*
X576407D01*
X574741Y316648D02*
X574911D01*
X577250Y315152D02*
X578875D01*
X576407Y316648D02*
X577250D01*
X574741Y315152D02*
X574911D01*
X574741D02*
Y316648D01*
X576407Y315152D02*
Y316648D01*
X578875Y320152D02*
Y321648D01*
X577250D02*
X578875D01*
X576407Y320152D02*
X577250D01*
X574911Y321648D02*
X576407D01*
X574911Y320152D02*
X576407D01*
X574741Y321648D02*
X574911D01*
X577250Y320152D02*
X578875D01*
X576407Y321648D02*
X577250D01*
X574741Y320152D02*
X574911D01*
X574741D02*
Y321648D01*
X576407Y320152D02*
Y321648D01*
X567772Y323046D02*
X568363D01*
X565765D02*
X566355D01*
X565765Y303754D02*
X566355D01*
X567772D02*
X568363D01*
D13*
X598099Y272800D02*
G03*
X635501Y272800I18701J0D01*
G01*
D02*
G03*
X598099Y272800I-18701J0D01*
G01*
X596499Y214347D02*
G03*
X633901Y214347I18701J0D01*
G01*
D02*
G03*
X596499Y214347I-18701J0D01*
G01*
M02*
