M48
;Layer_Color=9474304
;FILE_FORMAT=2:5
INCH,LZ
;TYPE=PLATED
T1F00S00C0.00787
T2F00S00C0.00800
T3F00S00C0.03543
T4F00S00C0.04000
T5F00S00C0.04100
T6F00S00C0.04331
T7F00S00C0.04724
T8F00S00C0.05000
;TYPE=NON_PLATED
T12F00S00C0.09000
%
T01
X04911Y01953
X05005Y01991
X05036Y02018
X04965Y02241
X04843Y02215
X04818Y0212027
X04757Y02157
X0470411Y0225426
X04804Y02736
X0551Y03059
X06148Y02728
X0452342Y0241796
X0444836Y0239441
X0441911Y02345
X0436419Y0243047
X0430412Y0237308
X04327Y02273
X0413Y02334
X044024Y020805
X0447384Y02091
X045Y02062
T02
X0639922Y0304647
X05887Y02828
X05481Y02825
X05005Y02903
X04948Y02894
X0477784Y0249119
X0468793Y0253056
X0473Y02317
X045627Y0222728
X0429411
X04259Y0226927
Y02541
X05098Y03158
X0640957Y0321853
T03
X03524Y03383
X03624
X03724
X03824
X03924
X04024
X04124
X04224
X04324
X046398Y0366942
Y0376942
Y0386942
Y0396942
Y0406942
Y0416942
Y0426942
Y0436942
X047398
Y0426942
Y0416942
Y0406942
Y0396942
Y0386942
Y0376942
Y0366942
T04
X06252Y01812
X06352
X06452
X06688Y0196534
Y0208345
Y0220156
Y0231967
Y0243778
Y0255589
Y02674
Y0279211
X05751Y02725
Y02625
Y02525
Y02425
X05752Y01812
X05852
X05952
X06052
X06152
X05652
X05552
X05051Y02325
Y02425
Y02525
Y02625
Y02725
Y02825
T05
X06688Y0291022
T06
X06252Y0214347
X06268Y02728
X06068
X06052Y0214347
X0464302Y0302691
X0444302
T07
X03515Y02073
X03615
Y02173
X03515
Y02273
X03615
Y02373
X03515
Y02473
X03615
Y02573
X03515
Y02673
X03615
Y02773
X03515
Y02873
X03615
Y02973
X03515
T08
X0676517Y0184723
Y0302833
T12
X03524Y04543
X04324
M30
