G04*
G04 #@! TF.GenerationSoftware,Altium Limited,Altium Designer,19.1.5 (86)*
G04*
G04 Layer_Color=65535*
%FSLAX25Y25*%
%MOIN*%
G70*
G01*
G75*
%ADD10C,0.00394*%
%ADD11C,0.00984*%
%ADD12C,0.00500*%
%ADD13C,0.00787*%
%ADD14C,0.01000*%
%ADD15C,0.00800*%
%ADD16C,0.00600*%
D10*
X598099Y272800D02*
G03*
X635501Y272800I18701J0D01*
G01*
D02*
G03*
X598099Y272800I-18701J0D01*
G01*
X596499Y214347D02*
G03*
X633901Y214347I18701J0D01*
G01*
D02*
G03*
X596499Y214347I-18701J0D01*
G01*
D11*
X459715Y264768D02*
G03*
X459715Y264768I-492J0D01*
G01*
X436050Y302687D02*
G03*
X436050Y302687I-492J0D01*
G01*
D12*
X564872Y316000D02*
G03*
X564872Y320700I0J2350D01*
G01*
D02*
G03*
X564872Y316000I0J-2350D01*
G01*
X500100Y310000D02*
X580100D01*
Y205000D02*
Y310000D01*
X500100Y205000D02*
X580100D01*
X500100D02*
Y310000D01*
X508600Y175900D02*
X525600D01*
X508600D02*
Y196400D01*
X542600D01*
Y175900D02*
Y196400D01*
X525600Y175900D02*
X542600D01*
X441900Y464300D02*
X442400D01*
D13*
X423199Y258567D02*
X459813D01*
X423199Y221953D02*
Y258567D01*
Y221953D02*
X459813D01*
Y258567D01*
X366421Y187300D02*
Y317674D01*
X309118D02*
X366421D01*
X309118Y186926D02*
Y317674D01*
Y186926D02*
X366000D01*
X437451Y297691D02*
Y307691D01*
Y297691D02*
X471152D01*
Y307691D01*
X437451D02*
X471152D01*
X563528Y303557D02*
X570615D01*
X560072Y323800D02*
X574072D01*
X460995Y201868D02*
X464145D01*
X460995Y207773D02*
X464145D01*
X342400Y464300D02*
X441900D01*
X342400Y330300D02*
Y464300D01*
Y330300D02*
X442400D01*
Y464300D01*
X458980Y361942D02*
X478980D01*
Y441942D01*
X459055Y361942D02*
Y441942D01*
X458980D02*
X478980D01*
X637178Y318113D02*
Y319687D01*
X634422Y318113D02*
Y319687D01*
X547078Y195313D02*
Y196887D01*
X544322Y195313D02*
Y196887D01*
X637278Y306813D02*
Y308387D01*
X634522Y306813D02*
Y308387D01*
X618625Y324653D02*
X621775D01*
X618625Y318747D02*
X621775D01*
X407437Y251481D02*
Y254630D01*
X401531Y251481D02*
Y254630D01*
X397537Y251481D02*
Y254630D01*
X391631Y251481D02*
Y254630D01*
X409537Y218801D02*
Y221951D01*
X403631Y218801D02*
Y221951D01*
X400337Y218701D02*
Y221851D01*
X394431Y218701D02*
Y221851D01*
X431709Y271823D02*
X434859D01*
X431709Y277729D02*
X434859D01*
X431909Y280923D02*
X435059D01*
X431909Y286829D02*
X435059D01*
X460995Y198029D02*
X464145D01*
X460995Y192123D02*
X464145D01*
X474831Y259170D02*
Y262319D01*
X480737Y259170D02*
Y262319D01*
X485231Y259201D02*
Y262351D01*
X491137Y259201D02*
Y262351D01*
X600925Y246153D02*
X604075D01*
X600925Y240247D02*
X604075D01*
X437553Y430125D02*
Y433275D01*
X431647Y430125D02*
Y433275D01*
X453353Y430125D02*
Y433275D01*
X447447Y430125D02*
Y433275D01*
X625225Y240247D02*
X628375D01*
X625225Y246153D02*
X628375D01*
X594453Y310810D02*
Y313960D01*
X588547Y310810D02*
Y313960D01*
X603653Y310725D02*
Y313875D01*
X597747Y310725D02*
Y313875D01*
X544339Y310625D02*
Y313775D01*
X538434Y310625D02*
Y313775D01*
X534039Y310425D02*
Y313575D01*
X528133Y310425D02*
Y313575D01*
D14*
X660926Y175668D02*
Y311888D01*
X682973D01*
Y175668D02*
Y311888D01*
X660926Y175668D02*
X682973D01*
X692955Y342884D02*
Y461084D01*
X525455Y342890D02*
Y461084D01*
X692955D01*
X525457Y342706D02*
X692955Y342884D01*
X519684Y381434D02*
X513686D01*
Y384433D01*
X514686Y385432D01*
X516685D01*
X517685Y384433D01*
Y381434D01*
Y383433D02*
X519684Y385432D01*
X513686Y391430D02*
Y387432D01*
X516685D01*
Y389431D01*
Y387432D01*
X519684D01*
X513686Y393430D02*
X519684D01*
Y396429D01*
X518684Y397428D01*
X514686D01*
X513686Y396429D01*
Y393430D01*
X518684Y399428D02*
X519684Y400427D01*
Y402427D01*
X518684Y403427D01*
X514686D01*
X513686Y402427D01*
Y400427D01*
X514686Y399428D01*
X515685D01*
X516685Y400427D01*
Y403427D01*
X514686Y405426D02*
X513686Y406426D01*
Y408425D01*
X514686Y409424D01*
X518684D01*
X519684Y408425D01*
Y406426D01*
X518684Y405426D01*
X514686D01*
Y411424D02*
X513686Y412424D01*
Y414423D01*
X514686Y415423D01*
X518684D01*
X519684Y414423D01*
Y412424D01*
X518684Y411424D01*
X514686D01*
X513686Y417422D02*
X519684Y421421D01*
X513686D02*
X519684Y417422D01*
X450102Y407300D02*
X455100D01*
X456100Y408300D01*
Y410299D01*
X455100Y411299D01*
X450102D01*
X456100Y417297D02*
Y413298D01*
X452101Y417297D01*
X451102D01*
X450102Y416297D01*
Y414298D01*
X451102Y413298D01*
X343050Y467650D02*
Y473648D01*
X346049D01*
X347049Y472648D01*
Y470649D01*
X346049Y469649D01*
X343050D01*
X349048Y467650D02*
X351047D01*
X350048D01*
Y473648D01*
X349048Y472648D01*
X552300Y194098D02*
Y189100D01*
X553300Y188100D01*
X555299D01*
X556299Y189100D01*
Y194098D01*
X558298Y193098D02*
X559298Y194098D01*
X561297D01*
X562297Y193098D01*
Y192099D01*
X561297Y191099D01*
X560297D01*
X561297D01*
X562297Y190099D01*
Y189100D01*
X561297Y188100D01*
X559298D01*
X558298Y189100D01*
X509400Y199639D02*
Y205637D01*
X512399D01*
X513399Y204637D01*
Y202638D01*
X512399Y201638D01*
X509400D01*
X519397Y199639D02*
X515398D01*
X519397Y203637D01*
Y204637D01*
X518397Y205637D01*
X516398D01*
X515398Y204637D01*
X544300Y204047D02*
Y210045D01*
X547299D01*
X548299Y209046D01*
Y207046D01*
X547299Y206047D01*
X544300D01*
X546299D02*
X548299Y204047D01*
X550298Y209046D02*
X551298Y210045D01*
X553297D01*
X554297Y209046D01*
Y208046D01*
X553297Y207046D01*
X552297D01*
X553297D01*
X554297Y206047D01*
Y205047D01*
X553297Y204047D01*
X551298D01*
X550298Y205047D01*
X500800Y319198D02*
Y314200D01*
X501800Y313200D01*
X503799D01*
X504799Y314200D01*
Y319198D01*
X509797Y313200D02*
Y319198D01*
X506798Y316199D01*
X510797D01*
X559643Y301598D02*
Y296600D01*
X560643Y295600D01*
X562642D01*
X563642Y296600D01*
Y301598D01*
X565641Y295600D02*
X567641D01*
X566641D01*
Y301598D01*
X565641Y300598D01*
X439600Y316090D02*
X438601Y317089D01*
X436601D01*
X435602Y316090D01*
Y315090D01*
X436601Y314090D01*
X438601D01*
X439600Y313091D01*
Y312091D01*
X438601Y311091D01*
X436601D01*
X435602Y312091D01*
X441600Y311091D02*
X443599D01*
X442599D01*
Y317089D01*
X441600Y316090D01*
X372699Y311698D02*
X370699D01*
X371699D01*
Y306700D01*
X370699Y305700D01*
X369700D01*
X368700Y306700D01*
X378697Y305700D02*
X374698D01*
X378697Y309699D01*
Y310698D01*
X377697Y311698D01*
X375698D01*
X374698Y310698D01*
X665422Y321416D02*
X663423D01*
X664422D01*
Y316417D01*
X663423Y315418D01*
X662423D01*
X661423Y316417D01*
X667421Y315418D02*
X669421D01*
X668421D01*
Y321416D01*
X667421Y320416D01*
X449742Y276806D02*
X451741D01*
X450742D01*
Y270808D01*
X449742D01*
X451741D01*
X458739Y275806D02*
X457739Y276806D01*
X455740D01*
X454740Y275806D01*
Y271808D01*
X455740Y270808D01*
X457739D01*
X458739Y271808D01*
X460739Y270808D02*
X462738D01*
X461738D01*
Y276806D01*
X460739Y275806D01*
X618899Y270499D02*
X616900D01*
Y269000D01*
X617900D01*
X616900D01*
Y267500D01*
X621898D02*
X619899D01*
X621898Y269499D01*
Y269999D01*
X621398Y270499D01*
X620399D01*
X619899Y269999D01*
X642999Y256699D02*
X641000D01*
Y255200D01*
X642000D01*
X641000D01*
Y253700D01*
X643999D02*
X644999D01*
X644499D01*
Y256699D01*
X643999Y256199D01*
X589501Y242099D02*
X589001Y241599D01*
Y240600D01*
X589501Y240100D01*
X591500D01*
X592000Y240600D01*
Y241599D01*
X591500Y242099D01*
X589501Y243099D02*
X589001Y243599D01*
Y244599D01*
X589501Y245098D01*
X590001D01*
X590500Y244599D01*
X591000Y245098D01*
X591500D01*
X592000Y244599D01*
Y243599D01*
X591500Y243099D01*
X591000D01*
X590500Y243599D01*
X590001Y243099D01*
X589501D01*
X590500Y243599D02*
Y244599D01*
X614701Y242799D02*
X614201Y242300D01*
Y241300D01*
X614701Y240800D01*
X616700D01*
X617200Y241300D01*
Y242300D01*
X616700Y242799D01*
X614201Y245798D02*
Y243799D01*
X615700D01*
X615201Y244799D01*
Y245299D01*
X615700Y245798D01*
X616700D01*
X617200Y245299D01*
Y244299D01*
X616700Y243799D01*
D15*
X465980Y353445D02*
Y355111D01*
Y354278D01*
X460982D01*
X461815Y353445D01*
X460982Y360942D02*
X461815Y359276D01*
X463481Y357610D01*
X465147D01*
X465980Y358443D01*
Y360109D01*
X465147Y360942D01*
X464314D01*
X463481Y360109D01*
Y357610D01*
X475980Y353445D02*
Y355111D01*
Y354278D01*
X470982D01*
X471815Y353445D01*
X470982Y360942D02*
Y357610D01*
X473481D01*
X472648Y359276D01*
Y360109D01*
X473481Y360942D01*
X475147D01*
X475980Y360109D01*
Y358443D01*
X475147Y357610D01*
X465980Y446942D02*
Y443610D01*
X462648Y446942D01*
X461815D01*
X460982Y446109D01*
Y444443D01*
X461815Y443610D01*
X475980D02*
Y445276D01*
Y444443D01*
X470982D01*
X471815Y443610D01*
X478019Y206634D02*
X477352Y207300D01*
X476019D01*
X475353Y206634D01*
Y203968D01*
X476019Y203301D01*
X477352D01*
X478019Y203968D01*
X479352Y203301D02*
X480685D01*
X480018D01*
Y207300D01*
X479352Y206634D01*
X485350Y203301D02*
X482684D01*
X485350Y205967D01*
Y206634D01*
X484683Y207300D01*
X483350D01*
X482684Y206634D01*
X393336Y210394D02*
X392669Y211061D01*
X391336D01*
X390670Y210394D01*
Y207728D01*
X391336Y207062D01*
X392669D01*
X393336Y207728D01*
X394669Y207062D02*
X396001D01*
X395335D01*
Y211061D01*
X394669Y210394D01*
X400667Y211061D02*
X398001D01*
Y209061D01*
X399334Y209728D01*
X400000D01*
X400667Y209061D01*
Y207728D01*
X400000Y207062D01*
X398667D01*
X398001Y207728D01*
X618099Y329899D02*
X617599Y330399D01*
X616600D01*
X616100Y329899D01*
Y327900D01*
X616600Y327400D01*
X617599D01*
X618099Y327900D01*
X619099Y327400D02*
X620099D01*
X619599D01*
Y330399D01*
X619099Y329899D01*
X621598Y327900D02*
X622098Y327400D01*
X623098D01*
X623598Y327900D01*
Y329899D01*
X623098Y330399D01*
X622098D01*
X621598Y329899D01*
Y329399D01*
X622098Y328900D01*
X623598D01*
X403250Y265758D02*
X402583Y266424D01*
X401250D01*
X400584Y265758D01*
Y263092D01*
X401250Y262426D01*
X402583D01*
X403250Y263092D01*
X404583Y262426D02*
X405916D01*
X405249D01*
Y266424D01*
X404583Y265758D01*
X407915D02*
X408581Y266424D01*
X409914D01*
X410581Y265758D01*
Y265092D01*
X409914Y264425D01*
X410581Y263759D01*
Y263092D01*
X409914Y262426D01*
X408581D01*
X407915Y263092D01*
Y263759D01*
X408581Y264425D01*
X407915Y265092D01*
Y265758D01*
X408581Y264425D02*
X409914D01*
X391627Y265569D02*
X390961Y266236D01*
X389628D01*
X388961Y265569D01*
Y262904D01*
X389628Y262237D01*
X390961D01*
X391627Y262904D01*
X392960Y262237D02*
X394293D01*
X393626D01*
Y266236D01*
X392960Y265569D01*
X396292Y266236D02*
X398958D01*
Y265569D01*
X396292Y262904D01*
Y262237D01*
X405472Y210926D02*
X404806Y211592D01*
X403473D01*
X402807Y210926D01*
Y208260D01*
X403473Y207593D01*
X404806D01*
X405472Y208260D01*
X406805Y207593D02*
X408138D01*
X407472D01*
Y211592D01*
X406805Y210926D01*
X412803Y211592D02*
X411471Y210926D01*
X410138Y209593D01*
Y208260D01*
X410804Y207593D01*
X412137D01*
X412803Y208260D01*
Y208926D01*
X412137Y209593D01*
X410138D01*
X417149Y276367D02*
X416483Y277034D01*
X415150D01*
X414483Y276367D01*
Y273702D01*
X415150Y273035D01*
X416483D01*
X417149Y273702D01*
X418482Y273035D02*
X419815D01*
X419149D01*
Y277034D01*
X418482Y276367D01*
X423814Y273035D02*
Y277034D01*
X421814Y275034D01*
X424480D01*
X417106Y285038D02*
X416439Y285704D01*
X415106D01*
X414440Y285038D01*
Y282372D01*
X415106Y281705D01*
X416439D01*
X417106Y282372D01*
X418438Y281705D02*
X419771D01*
X419105D01*
Y285704D01*
X418438Y285038D01*
X421771D02*
X422437Y285704D01*
X423770D01*
X424437Y285038D01*
Y284371D01*
X423770Y283705D01*
X423104D01*
X423770D01*
X424437Y283038D01*
Y282372D01*
X423770Y281705D01*
X422437D01*
X421771Y282372D01*
X477350Y195648D02*
X476683Y196315D01*
X475350D01*
X474684Y195648D01*
Y192982D01*
X475350Y192316D01*
X476683D01*
X477350Y192982D01*
X478683Y192316D02*
X480016D01*
X479349D01*
Y196315D01*
X478683Y195648D01*
X482015Y192316D02*
X483348D01*
X482681D01*
Y196315D01*
X482015Y195648D01*
X474623Y249451D02*
X473957Y250117D01*
X472624D01*
X471957Y249451D01*
Y246785D01*
X472624Y246118D01*
X473957D01*
X474623Y246785D01*
X475956Y246118D02*
X477289D01*
X476623D01*
Y250117D01*
X475956Y249451D01*
X479288D02*
X479955Y250117D01*
X481288D01*
X481954Y249451D01*
Y246785D01*
X481288Y246118D01*
X479955D01*
X479288Y246785D01*
Y249451D01*
X488850Y250292D02*
X488183Y250959D01*
X486850D01*
X486184Y250292D01*
Y247627D01*
X486850Y246960D01*
X488183D01*
X488850Y247627D01*
X490183D02*
X490849Y246960D01*
X492182D01*
X492848Y247627D01*
Y250292D01*
X492182Y250959D01*
X490849D01*
X490183Y250292D01*
Y249626D01*
X490849Y248960D01*
X492848D01*
X434566Y445988D02*
X433899Y446655D01*
X432566D01*
X431900Y445988D01*
Y443322D01*
X432566Y442656D01*
X433899D01*
X434566Y443322D01*
X435899Y446655D02*
X438564D01*
Y445988D01*
X435899Y443322D01*
Y442656D01*
X450166Y445732D02*
X449499Y446399D01*
X448166D01*
X447500Y445732D01*
Y443066D01*
X448166Y442400D01*
X449499D01*
X450166Y443066D01*
X454165Y446399D02*
X452832Y445732D01*
X451499Y444399D01*
Y443066D01*
X452165Y442400D01*
X453498D01*
X454165Y443066D01*
Y443733D01*
X453498Y444399D01*
X451499D01*
X590799Y324199D02*
X590300Y324699D01*
X589300D01*
X588800Y324199D01*
Y322200D01*
X589300Y321700D01*
X590300D01*
X590799Y322200D01*
X593298Y321700D02*
Y324699D01*
X591799Y323200D01*
X593798D01*
X599999Y324399D02*
X599500Y324899D01*
X598500D01*
X598000Y324399D01*
Y322400D01*
X598500Y321900D01*
X599500D01*
X599999Y322400D01*
X600999Y324399D02*
X601499Y324899D01*
X602498D01*
X602998Y324399D01*
Y323899D01*
X602498Y323399D01*
X601999D01*
X602498D01*
X602998Y322900D01*
Y322400D01*
X602498Y321900D01*
X601499D01*
X600999Y322400D01*
X540599Y324499D02*
X540099Y324999D01*
X539100D01*
X538600Y324499D01*
Y322500D01*
X539100Y322000D01*
X540099D01*
X540599Y322500D01*
X543598Y322000D02*
X541599D01*
X543598Y323999D01*
Y324499D01*
X543098Y324999D01*
X542099D01*
X541599Y324499D01*
X531199Y324299D02*
X530699Y324799D01*
X529700D01*
X529200Y324299D01*
Y322300D01*
X529700Y321800D01*
X530699D01*
X531199Y322300D01*
X532199Y321800D02*
X533199D01*
X532699D01*
Y324799D01*
X532199Y324299D01*
D16*
X639200Y317300D02*
Y320299D01*
X640699D01*
X641199Y319799D01*
Y318799D01*
X640699Y318300D01*
X639200D01*
X640200D02*
X641199Y317300D01*
X644198D02*
X642199D01*
X644198Y319299D01*
Y319799D01*
X643699Y320299D01*
X642699D01*
X642199Y319799D01*
X639700Y306200D02*
Y309199D01*
X641199D01*
X641699Y308699D01*
Y307699D01*
X641199Y307200D01*
X639700D01*
X640700D02*
X641699Y306200D01*
X642699D02*
X643699D01*
X643199D01*
Y309199D01*
X642699Y308699D01*
M02*
