G04*
G04 #@! TF.GenerationSoftware,Altium Limited,Altium Designer,19.1.5 (86)*
G04*
G04 Layer_Physical_Order=2*
G04 Layer_Color=16711680*
%FSLAX25Y25*%
%MOIN*%
G70*
G01*
G75*
%ADD14C,0.01000*%
%ADD51C,0.01500*%
%ADD54C,0.06496*%
%ADD55C,0.08000*%
%ADD56C,0.07500*%
%ADD57R,0.07087X0.07087*%
%ADD58C,0.07087*%
%ADD59C,0.07284*%
%ADD60R,0.07284X0.07284*%
%ADD61R,0.08000X0.08000*%
%ADD62O,0.04724X0.06693*%
%ADD63O,0.05512X0.04528*%
%ADD64C,0.07000*%
%ADD65R,0.07000X0.07000*%
%ADD66C,0.11000*%
%ADD67C,0.05906*%
%ADD68R,0.05906X0.05906*%
%ADD69R,0.05906X0.05906*%
%ADD70O,0.15748X0.12598*%
%ADD71C,0.02000*%
G36*
X471872Y414876D02*
X471614Y415126D01*
X471358Y415350D01*
X471103Y415547D01*
X470849Y415718D01*
X470597Y415863D01*
X470345Y415982D01*
X470095Y416074D01*
X469847Y416140D01*
X469599Y416179D01*
X469353Y416192D01*
Y417692D01*
X469599Y417706D01*
X469847Y417745D01*
X470095Y417811D01*
X470345Y417903D01*
X470597Y418022D01*
X470849Y418166D01*
X471103Y418338D01*
X471358Y418535D01*
X471614Y418759D01*
X471872Y419009D01*
Y414876D01*
D02*
G37*
G36*
X466347Y418759D02*
X466603Y418535D01*
X466858Y418338D01*
X467112Y418166D01*
X467364Y418022D01*
X467616Y417903D01*
X467866Y417811D01*
X468114Y417745D01*
X468362Y417706D01*
X468608Y417692D01*
Y416192D01*
X468362Y416179D01*
X468114Y416140D01*
X467866Y416074D01*
X467616Y415982D01*
X467364Y415863D01*
X467112Y415718D01*
X466858Y415547D01*
X466603Y415350D01*
X466347Y415126D01*
X466089Y414876D01*
Y419009D01*
X466347Y418759D01*
D02*
G37*
G36*
X476938Y416554D02*
X476961Y416214D01*
X477002Y415894D01*
X477060Y415594D01*
X477136Y415313D01*
X477230Y415051D01*
X477342Y414809D01*
X477471Y414587D01*
X477618Y414384D01*
X477783Y414200D01*
X476722Y413140D01*
X476539Y413305D01*
X476336Y413452D01*
X476113Y413581D01*
X475872Y413693D01*
X475610Y413787D01*
X475329Y413863D01*
X475029Y413921D01*
X474709Y413962D01*
X474369Y413985D01*
X474010Y413990D01*
X476933Y416913D01*
X476938Y416554D01*
D02*
G37*
G36*
X473951Y403990D02*
X473527Y403987D01*
X472766Y403935D01*
X472429Y403887D01*
X472122Y403823D01*
X471844Y403744D01*
X471595Y403650D01*
X471375Y403542D01*
X471185Y403417D01*
X471023Y403278D01*
X470316Y403985D01*
X470456Y404147D01*
X470579Y404337D01*
X470688Y404557D01*
X470782Y404806D01*
X470861Y405084D01*
X470925Y405391D01*
X470973Y405728D01*
X471025Y406489D01*
X471028Y406913D01*
X473951Y403990D01*
D02*
G37*
G36*
X549733Y458528D02*
X527327D01*
Y457628D01*
Y441428D01*
Y440028D01*
X549733D01*
Y363362D01*
X526972D01*
Y362462D01*
Y346262D01*
Y344862D01*
X549733D01*
Y336400D01*
X549799Y336068D01*
X549987Y335787D01*
X550268Y335599D01*
X550600Y335533D01*
X698333D01*
Y176004D01*
X647028D01*
X646929Y176504D01*
X647722Y176832D01*
X648766Y177634D01*
X649568Y178678D01*
X650071Y179895D01*
X650243Y181200D01*
X650071Y182505D01*
X649568Y183722D01*
X648766Y184766D01*
X647722Y185567D01*
X646505Y186071D01*
X645200Y186243D01*
X643895Y186071D01*
X642678Y185567D01*
X641634Y184766D01*
X640833Y183722D01*
X640471Y182848D01*
X639929D01*
X639568Y183722D01*
X638766Y184766D01*
X637722Y185567D01*
X636505Y186071D01*
X635200Y186243D01*
X633895Y186071D01*
X632678Y185567D01*
X631634Y184766D01*
X630832Y183722D01*
X630471Y182848D01*
X629929D01*
X629567Y183722D01*
X628766Y184766D01*
X627722Y185567D01*
X626505Y186071D01*
X625200Y186243D01*
X625097Y186230D01*
X624688Y186232D01*
X623844Y186283D01*
X623527Y186324D01*
X623248Y186377D01*
X623024Y186435D01*
X622859Y186493D01*
X622754Y186542D01*
X622706Y186571D01*
X622609Y186654D01*
X622402Y186769D01*
X622204Y186901D01*
X622142Y186913D01*
X622087Y186944D01*
X621852Y186971D01*
X621619Y187017D01*
X621557Y187005D01*
X621494Y187012D01*
X621266Y186947D01*
X621077Y186909D01*
X581993Y225993D01*
X581629Y226236D01*
X581200Y226322D01*
X581200Y226322D01*
X551215D01*
X551008Y226821D01*
X570048Y245861D01*
X570113Y245857D01*
X570322Y245409D01*
X570308Y245290D01*
X570296Y245274D01*
X569742Y243936D01*
X569553Y242500D01*
X569742Y241064D01*
X570296Y239726D01*
X571177Y238577D01*
X572326Y237696D01*
X573664Y237142D01*
X575100Y236952D01*
X576536Y237142D01*
X577874Y237696D01*
X579023Y238577D01*
X579904Y239726D01*
X580458Y241064D01*
X580648Y242500D01*
X580458Y243936D01*
X579904Y245274D01*
X579023Y246423D01*
X578000Y247207D01*
X577957Y247373D01*
Y247627D01*
X578000Y247793D01*
X579023Y248577D01*
X579904Y249726D01*
X580458Y251064D01*
X580648Y252500D01*
X580458Y253936D01*
X579904Y255274D01*
X579023Y256423D01*
X578000Y257207D01*
X577957Y257373D01*
Y257627D01*
X578000Y257793D01*
X579023Y258577D01*
X579904Y259726D01*
X580458Y261064D01*
X580648Y262500D01*
X580458Y263936D01*
X579904Y265274D01*
X579023Y266423D01*
X578000Y267207D01*
X577957Y267373D01*
Y267627D01*
X578000Y267793D01*
X579023Y268577D01*
X579904Y269726D01*
X580458Y271064D01*
X580648Y272500D01*
X580458Y273936D01*
X579904Y275274D01*
X579023Y276423D01*
X577874Y277304D01*
X576536Y277858D01*
X575100Y278047D01*
X573664Y277858D01*
X572326Y277304D01*
X571177Y276423D01*
X570296Y275274D01*
X569742Y273936D01*
X569553Y272500D01*
X569742Y271064D01*
X570296Y269726D01*
X571177Y268577D01*
X572200Y267793D01*
X572242Y267627D01*
Y267373D01*
X572200Y267207D01*
X571177Y266423D01*
X570296Y265274D01*
X569742Y263936D01*
X569553Y262500D01*
X569742Y261064D01*
X570296Y259726D01*
X571177Y258577D01*
X572200Y257793D01*
X572242Y257627D01*
Y257373D01*
X572200Y257207D01*
X571177Y256423D01*
X570296Y255274D01*
X569742Y253936D01*
X569553Y252500D01*
X569570Y252364D01*
X569568Y251885D01*
X569512Y250871D01*
X569465Y250481D01*
X569405Y250137D01*
X569336Y249858D01*
X569267Y249649D01*
X569205Y249511D01*
X569165Y249444D01*
X569071Y249333D01*
X568959Y249129D01*
X568830Y248936D01*
X568817Y248869D01*
X568784Y248809D01*
X568759Y248578D01*
X568714Y248350D01*
X568727Y248284D01*
X568720Y248216D01*
X568785Y247993D01*
X568822Y247808D01*
X549525Y228512D01*
X509602D01*
X509356Y229012D01*
X509904Y229726D01*
X510458Y231064D01*
X510647Y232500D01*
X510458Y233936D01*
X509904Y235274D01*
X509023Y236423D01*
X508000Y237207D01*
X507958Y237373D01*
Y237627D01*
X508000Y237793D01*
X509023Y238577D01*
X509904Y239726D01*
X510458Y241064D01*
X510647Y242500D01*
X510458Y243936D01*
X509904Y245274D01*
X509023Y246423D01*
X508000Y247207D01*
X507958Y247373D01*
Y247627D01*
X508000Y247793D01*
X509023Y248577D01*
X509904Y249726D01*
X510458Y251064D01*
X510647Y252500D01*
X510458Y253936D01*
X509904Y255274D01*
X509023Y256423D01*
X508000Y257207D01*
X507958Y257373D01*
Y257627D01*
X508000Y257793D01*
X509023Y258577D01*
X509904Y259726D01*
X510458Y261064D01*
X510647Y262500D01*
X510458Y263936D01*
X509904Y265274D01*
X509023Y266423D01*
X508000Y267207D01*
X507958Y267373D01*
Y267627D01*
X508000Y267793D01*
X509023Y268577D01*
X509904Y269726D01*
X510458Y271064D01*
X510647Y272500D01*
X510458Y273936D01*
X509904Y275274D01*
X509023Y276423D01*
X508887Y276526D01*
X509048Y277000D01*
X510600D01*
Y280220D01*
X510628Y280221D01*
X510900Y280283D01*
X511173Y280337D01*
X511190Y280348D01*
X511210Y280353D01*
X511438Y280514D01*
X511669Y280669D01*
X511681Y280685D01*
X511697Y280697D01*
X511846Y280933D01*
X511973Y281123D01*
X546013D01*
X546298Y280698D01*
X547124Y280145D01*
X548100Y279951D01*
X549076Y280145D01*
X549902Y280698D01*
X550455Y281524D01*
X550649Y282500D01*
X550455Y283475D01*
X549902Y284302D01*
X549076Y284855D01*
X548100Y285049D01*
X547124Y284855D01*
X546298Y284302D01*
X546013Y283876D01*
X511973D01*
X511846Y284067D01*
X511697Y284303D01*
X511681Y284315D01*
X511669Y284331D01*
X511438Y284486D01*
X511210Y284647D01*
X511190Y284652D01*
X511173Y284663D01*
X510900Y284717D01*
X510628Y284779D01*
X510600Y284780D01*
Y288000D01*
X502419D01*
X502274Y288478D01*
X502302Y288498D01*
X502855Y289324D01*
X502969Y289899D01*
X502992Y289922D01*
X503145Y290161D01*
X503303Y290398D01*
X503306Y290412D01*
X503314Y290424D01*
X503364Y290704D01*
X503420Y290983D01*
X503417Y290997D01*
X503419Y291012D01*
X503359Y291289D01*
X503312Y291526D01*
X516565Y304779D01*
X548145D01*
X548271Y304591D01*
X548412Y304361D01*
X548436Y304343D01*
X548453Y304319D01*
X548677Y304169D01*
X548895Y304011D01*
X548924Y304004D01*
X548949Y303987D01*
X549213Y303935D01*
X549475Y303872D01*
X549539Y303869D01*
X550025Y303545D01*
X551000Y303351D01*
X551975Y303545D01*
X552802Y304098D01*
X553355Y304925D01*
X553549Y305900D01*
X553355Y306875D01*
X552802Y307702D01*
X551975Y308255D01*
X551000Y308449D01*
X550025Y308255D01*
X549538Y307930D01*
X549506Y307929D01*
X549228Y307868D01*
X548949Y307813D01*
X548937Y307805D01*
X548922Y307802D01*
X548689Y307640D01*
X548453Y307481D01*
X548445Y307469D01*
X548433Y307461D01*
X548279Y307222D01*
X548145Y307021D01*
X516100D01*
X516100Y307022D01*
X515671Y306936D01*
X515307Y306693D01*
X515307Y306693D01*
X501726Y293112D01*
X501504Y293156D01*
X501242Y293218D01*
X501212Y293214D01*
X501183Y293220D01*
X500919Y293167D01*
X500653Y293125D01*
X500627Y293109D01*
X500598Y293103D01*
X500374Y292953D01*
X500144Y292812D01*
X500097Y292769D01*
X499524Y292655D01*
X498698Y292102D01*
X498145Y291276D01*
X497951Y290300D01*
X498145Y289324D01*
X498698Y288498D01*
X498884Y288373D01*
X498900Y288320D01*
X498850Y287795D01*
X498784Y287751D01*
X498539Y287590D01*
X498536Y287585D01*
X498531Y287581D01*
X498368Y287338D01*
X498224Y287126D01*
X496745D01*
X496689Y287312D01*
X496622Y287627D01*
X497155Y288424D01*
X497349Y289400D01*
X497155Y290375D01*
X496830Y290862D01*
X496829Y290895D01*
X496768Y291173D01*
X496713Y291451D01*
X496705Y291463D01*
X496702Y291477D01*
X496539Y291711D01*
X496381Y291948D01*
X496369Y291955D01*
X496361Y291967D01*
X496122Y292121D01*
X495922Y292255D01*
Y300335D01*
X508574Y312988D01*
X508796Y312944D01*
X509058Y312882D01*
X509088Y312886D01*
X509117Y312880D01*
X509381Y312933D01*
X509648Y312975D01*
X509673Y312991D01*
X509702Y312997D01*
X509926Y313147D01*
X510156Y313288D01*
X510203Y313331D01*
X510776Y313445D01*
X511602Y313998D01*
X512155Y314825D01*
X512349Y315800D01*
X512155Y316775D01*
X511602Y317602D01*
X510776Y318155D01*
X509800Y318349D01*
X508824Y318155D01*
X507998Y317602D01*
X507445Y316775D01*
X507331Y316201D01*
X507308Y316178D01*
X507155Y315939D01*
X506997Y315702D01*
X506994Y315688D01*
X506986Y315676D01*
X506936Y315396D01*
X506880Y315117D01*
X506883Y315103D01*
X506881Y315089D01*
X506941Y314810D01*
X506988Y314574D01*
X494007Y301593D01*
X493764Y301229D01*
X493678Y300800D01*
X493678Y300800D01*
Y292255D01*
X493491Y292129D01*
X493261Y291988D01*
X493243Y291964D01*
X493219Y291948D01*
X493069Y291723D01*
X492911Y291505D01*
X492904Y291476D01*
X492887Y291451D01*
X492835Y291187D01*
X492772Y290925D01*
X492769Y290861D01*
X492445Y290375D01*
X492406Y290180D01*
X491928Y290035D01*
X438377Y343586D01*
X437930Y343884D01*
X437403Y343989D01*
X426713D01*
X426713Y343989D01*
X426186Y343884D01*
X425739Y343586D01*
X425739Y343586D01*
X425678Y343525D01*
X425474Y343566D01*
X425223Y343630D01*
X425182Y343624D01*
X425142Y343632D01*
X424888Y343582D01*
X424633Y343545D01*
X424597Y343524D01*
X424557Y343515D01*
X424342Y343372D01*
X424120Y343240D01*
X423996Y343129D01*
X423920Y343074D01*
X423827Y343020D01*
X423711Y342967D01*
X423570Y342916D01*
X423402Y342870D01*
X423206Y342832D01*
X422980Y342804D01*
X422726Y342786D01*
X422465Y342783D01*
X422400Y342791D01*
X421238Y342638D01*
X420154Y342190D01*
X419224Y341476D01*
X418510Y340546D01*
X418062Y339462D01*
X417909Y338300D01*
X418062Y337138D01*
X418510Y336054D01*
X419224Y335124D01*
X420154Y334411D01*
X421238Y333962D01*
X422400Y333809D01*
X423562Y333962D01*
X424646Y334411D01*
X425576Y335124D01*
X426290Y336054D01*
X426738Y337138D01*
X426891Y338300D01*
X426883Y338365D01*
X426886Y338626D01*
X426904Y338880D01*
X426932Y339106D01*
X426970Y339302D01*
X427016Y339471D01*
X427067Y339611D01*
X427120Y339727D01*
X427174Y339820D01*
X427229Y339896D01*
X427340Y340020D01*
X427472Y340242D01*
X427615Y340457D01*
X427624Y340497D01*
X427645Y340533D01*
X427681Y340789D01*
X427732Y341042D01*
X428177Y341236D01*
X428475D01*
X428696Y340788D01*
X428511Y340546D01*
X428062Y339462D01*
X427909Y338300D01*
X428062Y337138D01*
X428511Y336054D01*
X429224Y335124D01*
X430154Y334411D01*
X431238Y333962D01*
X432400Y333809D01*
X433562Y333962D01*
X434646Y334411D01*
X435576Y335124D01*
X436290Y336054D01*
X436738Y337138D01*
X436891Y338300D01*
X436738Y339462D01*
X436290Y340546D01*
X436103Y340788D01*
X436325Y341236D01*
X436833D01*
X448686Y329383D01*
X448495Y328922D01*
X406265D01*
X403521Y331665D01*
Y332229D01*
X403687Y332340D01*
X403899Y332460D01*
X403934Y332505D01*
X403981Y332537D01*
X404116Y332739D01*
X404266Y332931D01*
X404281Y332986D01*
X404313Y333033D01*
X404360Y333271D01*
X404425Y333506D01*
X404433Y333615D01*
X404440Y333649D01*
X404466Y333724D01*
X404517Y333838D01*
X404600Y333986D01*
X404717Y334163D01*
X404858Y334352D01*
X405291Y334849D01*
X405522Y335083D01*
X405576Y335124D01*
X406289Y336054D01*
X406738Y337138D01*
X406891Y338300D01*
X406738Y339462D01*
X406289Y340546D01*
X405576Y341476D01*
X404646Y342190D01*
X403562Y342638D01*
X402400Y342791D01*
X401238Y342638D01*
X400154Y342190D01*
X399224Y341476D01*
X398511Y340546D01*
X398062Y339462D01*
X397909Y338300D01*
X398062Y337138D01*
X398511Y336054D01*
X399224Y335124D01*
X399278Y335083D01*
X399509Y334849D01*
X399942Y334352D01*
X400083Y334163D01*
X400200Y333986D01*
X400283Y333838D01*
X400334Y333724D01*
X400359Y333649D01*
X400367Y333615D01*
X400375Y333506D01*
X400440Y333271D01*
X400487Y333033D01*
X400519Y332986D01*
X400534Y332931D01*
X400683Y332739D01*
X400819Y332537D01*
X400866Y332505D01*
X400901Y332460D01*
X401113Y332340D01*
X401278Y332229D01*
Y331200D01*
X401278Y331200D01*
X401364Y330771D01*
X401607Y330407D01*
X405007Y327007D01*
X405007Y327007D01*
X405371Y326764D01*
X405800Y326678D01*
X405800Y326678D01*
X449135D01*
X467978Y307835D01*
Y307500D01*
X467978Y307500D01*
X468064Y307071D01*
X468307Y306707D01*
X468307Y306697D01*
X467908Y306405D01*
X466895Y307183D01*
X465644Y307701D01*
X464302Y307877D01*
X462959Y307701D01*
X461708Y307183D01*
X460634Y306358D01*
X459810Y305284D01*
X459292Y304033D01*
X459116Y302691D01*
X459130Y302579D01*
X459128Y302150D01*
X459076Y301257D01*
X459033Y300920D01*
X458978Y300622D01*
X458917Y300382D01*
X458855Y300205D01*
X458803Y300090D01*
X458770Y300038D01*
X458684Y299936D01*
X458570Y299730D01*
X458439Y299534D01*
X458427Y299471D01*
X458395Y299414D01*
X458369Y299180D01*
X458323Y298949D01*
X458335Y298886D01*
X458328Y298821D01*
X458393Y298595D01*
X458431Y298407D01*
X438446Y278421D01*
X368523D01*
X368415Y278582D01*
X368300Y278789D01*
X368251Y278829D01*
X368215Y278881D01*
X368018Y279013D01*
X367833Y279160D01*
X367772Y279178D01*
X367719Y279213D01*
X367487Y279259D01*
X367259Y279324D01*
X367131Y279335D01*
X367074Y279348D01*
X366963Y279389D01*
X366801Y279467D01*
X366598Y279586D01*
X366358Y279750D01*
X366101Y279949D01*
X365457Y280521D01*
X365162Y280813D01*
X365097Y280897D01*
X364043Y281705D01*
X363261Y282029D01*
Y282571D01*
X364043Y282895D01*
X365097Y283703D01*
X365905Y284757D01*
X366413Y285983D01*
X366587Y287300D01*
X366413Y288617D01*
X365905Y289843D01*
X365097Y290897D01*
X364043Y291705D01*
X363261Y292029D01*
Y292571D01*
X364043Y292895D01*
X365097Y293703D01*
X365905Y294757D01*
X366413Y295983D01*
X366587Y297300D01*
X366413Y298617D01*
X365905Y299843D01*
X365097Y300897D01*
X364043Y301705D01*
X362817Y302214D01*
X361500Y302387D01*
X360183Y302214D01*
X358957Y301705D01*
X357903Y300897D01*
X357095Y299843D01*
X356771Y299061D01*
X356229D01*
X355905Y299843D01*
X355097Y300897D01*
X354043Y301705D01*
X352817Y302214D01*
X351500Y302387D01*
X350183Y302214D01*
X348957Y301705D01*
X348417Y301291D01*
X347968Y301512D01*
Y322166D01*
X357393Y331591D01*
X357393Y331591D01*
X357627Y331941D01*
X358901Y333214D01*
X359096Y333175D01*
X359331Y333111D01*
X359387Y333118D01*
X359443Y333106D01*
X359682Y333154D01*
X359923Y333184D01*
X359972Y333212D01*
X360028Y333223D01*
X360230Y333358D01*
X360442Y333478D01*
X360525Y333550D01*
X360554Y333569D01*
X360625Y333604D01*
X360742Y333648D01*
X360905Y333694D01*
X361113Y333737D01*
X361347Y333771D01*
X362004Y333815D01*
X362333Y333818D01*
X362400Y333809D01*
X363562Y333962D01*
X364646Y334411D01*
X365576Y335124D01*
X366289Y336054D01*
X366738Y337138D01*
X366891Y338300D01*
X366738Y339462D01*
X366289Y340546D01*
X365576Y341476D01*
X364646Y342190D01*
X363562Y342638D01*
X362400Y342791D01*
X361673Y342695D01*
X361439Y343169D01*
X420011Y401741D01*
X462622D01*
X462721Y401240D01*
X461735Y400832D01*
X460805Y400118D01*
X460091Y399188D01*
X459642Y398105D01*
X459489Y396942D01*
X459642Y395780D01*
X460091Y394697D01*
X460805Y393767D01*
X461735Y393053D01*
X462818Y392604D01*
X463980Y392451D01*
X465143Y392604D01*
X466226Y393053D01*
X467156Y393767D01*
X467870Y394697D01*
X468319Y395780D01*
X468472Y396942D01*
X468319Y398105D01*
X467870Y399188D01*
X467156Y400118D01*
X466226Y400832D01*
X465240Y401240D01*
X465339Y401741D01*
X469900D01*
X469900Y401740D01*
X470329Y401826D01*
X470413Y401882D01*
X470438Y401865D01*
X470677Y401818D01*
X470911Y401753D01*
X470967Y401760D01*
X471023Y401749D01*
X471262Y401796D01*
X471503Y401826D01*
X471553Y401854D01*
X471609Y401865D01*
X471811Y402000D01*
X472022Y402120D01*
X472106Y402192D01*
X472135Y402211D01*
X472206Y402246D01*
X472323Y402290D01*
X472485Y402336D01*
X472693Y402379D01*
X472927Y402413D01*
X473584Y402458D01*
X473913Y402460D01*
X473980Y402451D01*
X475143Y402604D01*
X476226Y403053D01*
X477156Y403767D01*
X477870Y404697D01*
X478124Y405309D01*
X478623Y405210D01*
Y398675D01*
X478124Y398576D01*
X477870Y399188D01*
X477156Y400118D01*
X476226Y400832D01*
X475143Y401280D01*
X473980Y401434D01*
X472818Y401280D01*
X471735Y400832D01*
X470805Y400118D01*
X470091Y399188D01*
X469642Y398105D01*
X469489Y396942D01*
X469642Y395780D01*
X470091Y394697D01*
X470805Y393767D01*
X471735Y393053D01*
X472818Y392604D01*
X473980Y392451D01*
X475143Y392604D01*
X476226Y393053D01*
X477156Y393767D01*
X477870Y394697D01*
X478124Y395309D01*
X478623Y395210D01*
Y388675D01*
X478124Y388576D01*
X477870Y389188D01*
X477156Y390118D01*
X476226Y390832D01*
X475143Y391281D01*
X473980Y391434D01*
X472818Y391281D01*
X471735Y390832D01*
X470805Y390118D01*
X470091Y389188D01*
X469642Y388105D01*
X469489Y386942D01*
X469642Y385780D01*
X470091Y384697D01*
X470805Y383767D01*
X471735Y383053D01*
X472818Y382604D01*
X473980Y382451D01*
X475143Y382604D01*
X476226Y383053D01*
X477156Y383767D01*
X477870Y384697D01*
X478124Y385309D01*
X478623Y385210D01*
Y378675D01*
X478124Y378576D01*
X477870Y379188D01*
X477156Y380118D01*
X476226Y380832D01*
X475143Y381280D01*
X473980Y381434D01*
X472818Y381280D01*
X471735Y380832D01*
X470805Y380118D01*
X470091Y379188D01*
X469642Y378105D01*
X469489Y376942D01*
X469642Y375780D01*
X470091Y374697D01*
X470805Y373767D01*
X471735Y373053D01*
X472818Y372604D01*
X473980Y372451D01*
X475143Y372604D01*
X476226Y373053D01*
X477156Y373767D01*
X477870Y374697D01*
X478124Y375309D01*
X478623Y375210D01*
Y368675D01*
X478124Y368576D01*
X477870Y369188D01*
X477156Y370118D01*
X476226Y370832D01*
X475143Y371281D01*
X473980Y371434D01*
X472818Y371281D01*
X471735Y370832D01*
X470805Y370118D01*
X470091Y369188D01*
X469642Y368105D01*
X469489Y366942D01*
X469642Y365780D01*
X470091Y364697D01*
X470805Y363767D01*
X471735Y363053D01*
X472818Y362604D01*
X473980Y362451D01*
X475143Y362604D01*
X476226Y363053D01*
X477156Y363767D01*
X477870Y364697D01*
X478124Y365309D01*
X478623Y365210D01*
Y362300D01*
X478728Y361773D01*
X479027Y361327D01*
X528627Y311727D01*
X529073Y311428D01*
X529600Y311323D01*
X577030D01*
X582224Y306130D01*
Y235947D01*
X582328Y235420D01*
X582627Y234974D01*
X599634Y217966D01*
X599594Y217765D01*
X599530Y217519D01*
X599536Y217474D01*
X599528Y217429D01*
X599577Y217180D01*
X599612Y216928D01*
X599635Y216889D01*
X599644Y216844D01*
X599786Y216633D01*
X599914Y216413D01*
X600031Y216282D01*
X600090Y216198D01*
X600151Y216089D01*
X600212Y215949D01*
X600271Y215776D01*
X600323Y215569D01*
X600363Y215348D01*
X600419Y214718D01*
X600422Y214431D01*
X600411Y214347D01*
X600574Y213108D01*
X601053Y211953D01*
X601814Y210961D01*
X602806Y210200D01*
X603961Y209721D01*
X605200Y209558D01*
X606439Y209721D01*
X607594Y210200D01*
X608586Y210961D01*
X609347Y211953D01*
X609826Y213108D01*
X609989Y214347D01*
X609826Y215587D01*
X609347Y216742D01*
X608586Y217734D01*
X607594Y218495D01*
X606439Y218973D01*
X605200Y219136D01*
X605117Y219125D01*
X604809Y219129D01*
X604498Y219148D01*
X604221Y219180D01*
X603978Y219224D01*
X603771Y219276D01*
X603598Y219335D01*
X603458Y219396D01*
X603349Y219457D01*
X603265Y219516D01*
X603134Y219633D01*
X602915Y219762D01*
X602703Y219903D01*
X602659Y219912D01*
X602620Y219935D01*
X602367Y219970D01*
X602118Y220020D01*
X602073Y220011D01*
X602029Y220017D01*
X601782Y219953D01*
X601581Y219913D01*
X584976Y236517D01*
Y306700D01*
X584872Y307227D01*
X584573Y307673D01*
X578573Y313673D01*
X578127Y313972D01*
X577600Y314076D01*
X530170D01*
X481377Y362870D01*
Y410923D01*
X481272Y411449D01*
X480973Y411896D01*
X479206Y413664D01*
X479246Y413869D01*
X479310Y414119D01*
X479304Y414160D01*
X479312Y414200D01*
X479262Y414454D01*
X479225Y414710D01*
X479204Y414745D01*
X479196Y414786D01*
X479052Y415000D01*
X478921Y415223D01*
X478809Y415346D01*
X478755Y415422D01*
X478700Y415516D01*
X478647Y415631D01*
X478596Y415772D01*
X478551Y415940D01*
X478513Y416137D01*
X478484Y416362D01*
X478467Y416616D01*
X478463Y416878D01*
X478472Y416942D01*
X478319Y418105D01*
X477870Y419188D01*
X477156Y420118D01*
X476226Y420832D01*
X475143Y421280D01*
X473980Y421434D01*
X472818Y421280D01*
X471735Y420832D01*
X470805Y420118D01*
X470765Y420066D01*
X470577Y419884D01*
X470386Y419717D01*
X470206Y419578D01*
X470040Y419465D01*
X469889Y419379D01*
X469753Y419315D01*
X469634Y419271D01*
X469530Y419243D01*
X469437Y419229D01*
X469271Y419220D01*
X469021Y419156D01*
X468980Y419148D01*
X468940Y419156D01*
X468690Y419220D01*
X468524Y419229D01*
X468431Y419243D01*
X468327Y419271D01*
X468208Y419315D01*
X468072Y419379D01*
X467921Y419465D01*
X467755Y419578D01*
X467575Y419717D01*
X467383Y419884D01*
X467196Y420066D01*
X467156Y420118D01*
X466226Y420832D01*
X465143Y421280D01*
X463980Y421434D01*
X462818Y421280D01*
X461735Y420832D01*
X460805Y420118D01*
X460091Y419188D01*
X459642Y418105D01*
X459489Y416942D01*
X459642Y415780D01*
X460091Y414697D01*
X460805Y413767D01*
X461735Y413053D01*
X462818Y412604D01*
X463980Y412451D01*
X465143Y412604D01*
X466226Y413053D01*
X467156Y413767D01*
X467196Y413818D01*
X467383Y414001D01*
X467575Y414168D01*
X467755Y414307D01*
X467921Y414419D01*
X468072Y414506D01*
X468208Y414570D01*
X468327Y414614D01*
X468431Y414642D01*
X468524Y414656D01*
X468690Y414665D01*
X468940Y414729D01*
X468980Y414737D01*
X469021Y414729D01*
X469271Y414665D01*
X469437Y414656D01*
X469530Y414642D01*
X469634Y414614D01*
X469753Y414570D01*
X469889Y414506D01*
X470040Y414419D01*
X470206Y414307D01*
X470386Y414168D01*
X470577Y414001D01*
X470765Y413818D01*
X470805Y413767D01*
X471735Y413053D01*
X472818Y412604D01*
X473980Y412451D01*
X474045Y412460D01*
X474306Y412456D01*
X474560Y412439D01*
X474786Y412410D01*
X474983Y412372D01*
X475151Y412326D01*
X475292Y412276D01*
X475407Y412222D01*
X475501Y412168D01*
X475576Y412113D01*
X475700Y412002D01*
X475922Y411870D01*
X476137Y411727D01*
X476178Y411719D01*
X476213Y411698D01*
X476469Y411661D01*
X476722Y411611D01*
X476763Y411619D01*
X476804Y411613D01*
X477054Y411677D01*
X477259Y411717D01*
X478623Y410353D01*
Y408675D01*
X478124Y408576D01*
X477870Y409188D01*
X477156Y410118D01*
X476226Y410832D01*
X475143Y411280D01*
X473980Y411434D01*
X472818Y411280D01*
X471735Y410832D01*
X470805Y410118D01*
X470091Y409188D01*
X469642Y408105D01*
X469489Y406942D01*
X469498Y406875D01*
X469496Y406546D01*
X469451Y405889D01*
X469417Y405656D01*
X469374Y405448D01*
X469328Y405285D01*
X469284Y405168D01*
X469249Y405097D01*
X469230Y405068D01*
X469158Y404984D01*
X469038Y404773D01*
X468903Y404571D01*
X468892Y404515D01*
X468864Y404465D01*
X468834Y404224D01*
X468787Y403985D01*
X468785Y403984D01*
X467888D01*
X467667Y404432D01*
X467870Y404697D01*
X468319Y405780D01*
X468472Y406942D01*
X468319Y408105D01*
X467870Y409188D01*
X467156Y410118D01*
X466226Y410832D01*
X465143Y411280D01*
X463980Y411434D01*
X462818Y411280D01*
X461735Y410832D01*
X460805Y410118D01*
X460091Y409188D01*
X459642Y408105D01*
X459489Y406942D01*
X459642Y405780D01*
X460091Y404697D01*
X460294Y404432D01*
X460073Y403984D01*
X419546D01*
X419546Y403984D01*
X419117Y403898D01*
X418753Y403655D01*
X418753Y403655D01*
X357315Y342217D01*
X356853Y342408D01*
Y342753D01*
X347947D01*
Y333847D01*
X353445D01*
X353637Y333385D01*
X344454Y324202D01*
X344211Y323839D01*
X344125Y323409D01*
X344125Y323409D01*
Y204953D01*
X344125Y204953D01*
X344211Y204524D01*
X344454Y204160D01*
X348107Y200507D01*
X348471Y200264D01*
X348900Y200178D01*
X348900Y200178D01*
X433490D01*
X433490Y200178D01*
X433920Y200264D01*
X434283Y200507D01*
X439015Y205238D01*
X439236Y205194D01*
X439499Y205132D01*
X439528Y205136D01*
X439557Y205130D01*
X439822Y205183D01*
X440088Y205225D01*
X440113Y205241D01*
X440143Y205247D01*
X440367Y205397D01*
X440596Y205538D01*
X440644Y205581D01*
X441216Y205695D01*
X442043Y206248D01*
X442595Y207074D01*
X442789Y208050D01*
X442595Y209026D01*
X442043Y209852D01*
X441216Y210405D01*
X440240Y210599D01*
X439265Y210405D01*
X438438Y209852D01*
X437886Y209026D01*
X437771Y208451D01*
X437749Y208428D01*
X437595Y208189D01*
X437437Y207952D01*
X437434Y207938D01*
X437427Y207926D01*
X437376Y207646D01*
X437321Y207367D01*
X437324Y207353D01*
X437321Y207339D01*
X437382Y207061D01*
X437429Y206824D01*
X433026Y202422D01*
X366543D01*
Y212343D01*
X364019D01*
X363919Y212843D01*
X364043Y212895D01*
X365097Y213703D01*
X365905Y214757D01*
X366413Y215983D01*
X366587Y217300D01*
X366413Y218617D01*
X365905Y219843D01*
X365097Y220897D01*
X364043Y221705D01*
X363261Y222029D01*
Y222571D01*
X364043Y222895D01*
X365097Y223703D01*
X365905Y224757D01*
X366413Y225983D01*
X366587Y227300D01*
X366413Y228617D01*
X365905Y229843D01*
X365097Y230897D01*
X364982Y230985D01*
X364993Y231607D01*
X365665Y232278D01*
X410145D01*
X410271Y232091D01*
X410412Y231861D01*
X410436Y231843D01*
X410453Y231819D01*
X410677Y231669D01*
X410895Y231511D01*
X410924Y231504D01*
X410949Y231487D01*
X411213Y231434D01*
X411475Y231372D01*
X411539Y231369D01*
X412024Y231045D01*
X413000Y230851D01*
X413975Y231045D01*
X414802Y231598D01*
X415174Y232154D01*
X415790Y232245D01*
X423403Y224633D01*
X423766Y224390D01*
X423910Y224361D01*
X424237Y224034D01*
X424237Y224034D01*
X424601Y223791D01*
X425030Y223705D01*
X425030Y223705D01*
X426547D01*
X426917Y223345D01*
X426963Y223234D01*
X426862Y222728D01*
X427056Y221752D01*
X427608Y220925D01*
X428436Y220373D01*
X429411Y220179D01*
X430386Y220373D01*
X431213Y220925D01*
X431498Y221351D01*
X454183D01*
X454468Y220925D01*
X455295Y220373D01*
X456270Y220179D01*
X457246Y220373D01*
X458073Y220925D01*
X458625Y221752D01*
X458819Y222728D01*
X458625Y223703D01*
X458518Y223863D01*
X458754Y224304D01*
X467556D01*
X467682Y224116D01*
X467823Y223887D01*
X467847Y223869D01*
X467863Y223844D01*
X468087Y223695D01*
X468306Y223536D01*
X468335Y223529D01*
X468360Y223513D01*
X468624Y223460D01*
X468886Y223398D01*
X468950Y223395D01*
X469435Y223071D01*
X470411Y222877D01*
X471386Y223071D01*
X472213Y223623D01*
X472766Y224450D01*
X472960Y225426D01*
X472865Y225904D01*
X473275Y226404D01*
X492610D01*
X493688Y225326D01*
X493644Y225104D01*
X493581Y224842D01*
X493586Y224812D01*
X493580Y224783D01*
X493633Y224519D01*
X493675Y224253D01*
X493691Y224227D01*
X493697Y224198D01*
X493847Y223974D01*
X493988Y223744D01*
X494031Y223697D01*
X494145Y223125D01*
X494698Y222298D01*
X495525Y221745D01*
X496500Y221551D01*
X497475Y221745D01*
X498302Y222298D01*
X498855Y223125D01*
X499045Y224078D01*
X580735D01*
X619490Y185323D01*
X619453Y185134D01*
X619388Y184906D01*
X619395Y184843D01*
X619383Y184783D01*
X619374Y184777D01*
X618914Y184573D01*
X618766Y184766D01*
X617722Y185567D01*
X616505Y186071D01*
X615200Y186243D01*
X615097Y186230D01*
X614688Y186232D01*
X613844Y186283D01*
X613527Y186324D01*
X613248Y186377D01*
X613024Y186435D01*
X612859Y186493D01*
X612754Y186542D01*
X612706Y186571D01*
X612609Y186654D01*
X612401Y186769D01*
X612204Y186901D01*
X612142Y186913D01*
X612087Y186944D01*
X611852Y186971D01*
X611619Y187017D01*
X611557Y187005D01*
X611494Y187012D01*
X611266Y186947D01*
X611077Y186909D01*
X578603Y219383D01*
X578239Y219626D01*
X577810Y219712D01*
X577810Y219711D01*
X487675D01*
X487112Y220274D01*
X487156Y220496D01*
X487219Y220758D01*
X487214Y220788D01*
X487220Y220817D01*
X487167Y221081D01*
X487125Y221347D01*
X487109Y221373D01*
X487103Y221402D01*
X486953Y221626D01*
X486812Y221856D01*
X486769Y221903D01*
X486655Y222476D01*
X486102Y223302D01*
X485276Y223855D01*
X484300Y224049D01*
X483324Y223855D01*
X482498Y223302D01*
X481945Y222476D01*
X481751Y221500D01*
X481945Y220525D01*
X482498Y219698D01*
X483324Y219145D01*
X483899Y219031D01*
X483922Y219008D01*
X484161Y218855D01*
X484398Y218697D01*
X484412Y218694D01*
X484424Y218686D01*
X484704Y218636D01*
X484983Y218580D01*
X484997Y218583D01*
X485011Y218581D01*
X485289Y218641D01*
X485526Y218688D01*
X486417Y217797D01*
X486417Y217797D01*
X486781Y217554D01*
X487210Y217468D01*
X487210Y217468D01*
X577345D01*
X609490Y185323D01*
X609453Y185134D01*
X609388Y184906D01*
X609395Y184843D01*
X609383Y184783D01*
X609374Y184777D01*
X608914Y184573D01*
X608766Y184766D01*
X607722Y185567D01*
X606505Y186071D01*
X605200Y186243D01*
X603895Y186071D01*
X602678Y185567D01*
X601634Y184766D01*
X600833Y183722D01*
X600471Y182848D01*
X599929D01*
X599568Y183722D01*
X598766Y184766D01*
X597722Y185567D01*
X596505Y186071D01*
X595200Y186243D01*
X595097Y186230D01*
X594688Y186232D01*
X593844Y186283D01*
X593527Y186324D01*
X593248Y186377D01*
X593024Y186435D01*
X592859Y186493D01*
X592754Y186542D01*
X592706Y186571D01*
X592609Y186654D01*
X592402Y186769D01*
X592204Y186901D01*
X592142Y186913D01*
X592087Y186944D01*
X591852Y186971D01*
X591619Y187017D01*
X591557Y187005D01*
X591494Y187012D01*
X591266Y186947D01*
X591077Y186909D01*
X565167Y212820D01*
X564803Y213063D01*
X564373Y213148D01*
X564373Y213148D01*
X484655D01*
X484529Y213336D01*
X484388Y213566D01*
X484364Y213583D01*
X484347Y213608D01*
X484123Y213758D01*
X483905Y213916D01*
X483876Y213923D01*
X483851Y213940D01*
X483587Y213992D01*
X483325Y214055D01*
X483261Y214057D01*
X482775Y214382D01*
X481800Y214576D01*
X480825Y214382D01*
X479998Y213829D01*
X479445Y213002D01*
X479251Y212027D01*
X479445Y211051D01*
X479998Y210224D01*
X480825Y209672D01*
X481800Y209478D01*
X482775Y209672D01*
X483262Y209997D01*
X483294Y209998D01*
X483572Y210058D01*
X483851Y210114D01*
X483863Y210122D01*
X483878Y210125D01*
X484111Y210287D01*
X484347Y210445D01*
X484355Y210457D01*
X484367Y210466D01*
X484521Y210705D01*
X484655Y210905D01*
X563909D01*
X589491Y185323D01*
X589453Y185134D01*
X589388Y184906D01*
X589395Y184843D01*
X589383Y184783D01*
X589374Y184777D01*
X588914Y184573D01*
X588766Y184766D01*
X587722Y185567D01*
X586505Y186071D01*
X585200Y186243D01*
X583895Y186071D01*
X582678Y185567D01*
X581634Y184766D01*
X580832Y183722D01*
X580471Y182848D01*
X579929D01*
X579567Y183722D01*
X578766Y184766D01*
X577722Y185567D01*
X576505Y186071D01*
X575200Y186243D01*
X573895Y186071D01*
X572678Y185567D01*
X571634Y184766D01*
X570832Y183722D01*
X570471Y182848D01*
X569929D01*
X569567Y183722D01*
X568766Y184766D01*
X567722Y185567D01*
X566505Y186071D01*
X565200Y186243D01*
X565097Y186230D01*
X564688Y186232D01*
X563844Y186283D01*
X563527Y186324D01*
X563248Y186377D01*
X563024Y186435D01*
X562859Y186493D01*
X562754Y186542D01*
X562706Y186571D01*
X562609Y186654D01*
X562401Y186769D01*
X562204Y186901D01*
X562142Y186913D01*
X562087Y186944D01*
X561852Y186971D01*
X561619Y187017D01*
X561557Y187005D01*
X561494Y187012D01*
X561266Y186947D01*
X561077Y186909D01*
X540593Y207393D01*
X540229Y207636D01*
X539800Y207722D01*
X539800Y207721D01*
X479565D01*
X476822Y210465D01*
Y212845D01*
X477009Y212971D01*
X477239Y213112D01*
X477257Y213136D01*
X477281Y213153D01*
X477431Y213377D01*
X477589Y213595D01*
X477596Y213624D01*
X477613Y213649D01*
X477666Y213913D01*
X477728Y214175D01*
X477731Y214239D01*
X478055Y214724D01*
X478249Y215700D01*
X478055Y216675D01*
X477502Y217502D01*
X476676Y218055D01*
X475700Y218249D01*
X474724Y218055D01*
X473898Y217502D01*
X473345Y216675D01*
X473151Y215700D01*
X473345Y214724D01*
X473670Y214238D01*
X473671Y214206D01*
X473732Y213928D01*
X473787Y213649D01*
X473795Y213637D01*
X473798Y213622D01*
X473960Y213389D01*
X474119Y213153D01*
X474131Y213144D01*
X474139Y213133D01*
X474378Y212979D01*
X474578Y212845D01*
Y210000D01*
X474578Y210000D01*
X474664Y209571D01*
X474907Y209207D01*
X478307Y205807D01*
X478307Y205807D01*
X478671Y205564D01*
X479100Y205478D01*
X479100Y205479D01*
X539335D01*
X558152Y186662D01*
X557961Y186200D01*
X550200D01*
Y178369D01*
X549700Y178162D01*
X539669Y188193D01*
X539305Y188436D01*
X538875Y188522D01*
X538875Y188522D01*
X538057D01*
X537993Y188643D01*
X537925Y189022D01*
X538619Y189554D01*
X539222Y190340D01*
X539602Y191256D01*
X539731Y192239D01*
X539602Y193221D01*
X539222Y194137D01*
X538619Y194923D01*
X537833Y195526D01*
X536917Y195905D01*
X535935Y196035D01*
X534950D01*
X533968Y195905D01*
X533052Y195526D01*
X532266Y194923D01*
X531663Y194137D01*
X531284Y193221D01*
X531154Y192239D01*
X531284Y191256D01*
X531663Y190340D01*
X532266Y189554D01*
X532960Y189022D01*
X532892Y188643D01*
X532828Y188522D01*
X518372D01*
X518308Y188643D01*
X518240Y189022D01*
X518934Y189554D01*
X519537Y190340D01*
X519916Y191256D01*
X520046Y192239D01*
X519916Y193221D01*
X519537Y194137D01*
X518934Y194923D01*
X518148Y195526D01*
X517232Y195905D01*
X516250Y196035D01*
X515265D01*
X514283Y195905D01*
X513367Y195526D01*
X512581Y194923D01*
X511978Y194137D01*
X511598Y193221D01*
X511469Y192239D01*
X511598Y191256D01*
X511978Y190340D01*
X512581Y189554D01*
X513275Y189022D01*
X513207Y188643D01*
X513143Y188522D01*
X499465D01*
X493912Y194074D01*
X493956Y194296D01*
X494019Y194558D01*
X494014Y194588D01*
X494020Y194617D01*
X493967Y194881D01*
X493925Y195148D01*
X493909Y195173D01*
X493903Y195202D01*
X493753Y195426D01*
X493612Y195656D01*
X493569Y195703D01*
X493455Y196275D01*
X492902Y197102D01*
X492340Y197478D01*
X492491Y197978D01*
X497645D01*
X497771Y197791D01*
X497912Y197561D01*
X497936Y197543D01*
X497953Y197519D01*
X498177Y197369D01*
X498395Y197211D01*
X498424Y197204D01*
X498449Y197187D01*
X498713Y197134D01*
X498975Y197072D01*
X499039Y197069D01*
X499524Y196745D01*
X500500Y196551D01*
X501475Y196745D01*
X502302Y197298D01*
X502855Y198125D01*
X503015Y198930D01*
X503485Y199274D01*
X503600Y199251D01*
X504575Y199445D01*
X505402Y199998D01*
X505955Y200824D01*
X506149Y201800D01*
X505955Y202776D01*
X505402Y203602D01*
X504575Y204155D01*
X503600Y204349D01*
X502625Y204155D01*
X502138Y203830D01*
X502106Y203829D01*
X501827Y203768D01*
X501549Y203713D01*
X501537Y203705D01*
X501522Y203702D01*
X501289Y203539D01*
X501053Y203381D01*
X501045Y203369D01*
X501033Y203361D01*
X500879Y203122D01*
X500745Y202922D01*
X454865D01*
X452812Y204974D01*
X452856Y205196D01*
X452918Y205458D01*
X452914Y205488D01*
X452920Y205517D01*
X452867Y205781D01*
X452825Y206048D01*
X452809Y206073D01*
X452803Y206102D01*
X452653Y206326D01*
X452512Y206556D01*
X452469Y206603D01*
X452355Y207175D01*
X451802Y208002D01*
X450976Y208555D01*
X450000Y208749D01*
X449886Y208863D01*
X449933Y209100D01*
X449739Y210075D01*
X449186Y210902D01*
X448359Y211455D01*
X447384Y211649D01*
X446409Y211455D01*
X445582Y210902D01*
X445029Y210075D01*
X444835Y209100D01*
X445029Y208124D01*
X445354Y207638D01*
X445355Y207606D01*
X445416Y207328D01*
X445471Y207049D01*
X445479Y207037D01*
X445482Y207023D01*
X445645Y206789D01*
X445803Y206553D01*
X445815Y206544D01*
X445823Y206533D01*
X446062Y206379D01*
X446262Y206245D01*
Y205846D01*
X446262Y205846D01*
X446348Y205417D01*
X446591Y205053D01*
X453337Y198307D01*
X453337Y198307D01*
X453701Y198064D01*
X454130Y197978D01*
X454130Y197978D01*
X489709D01*
X489860Y197478D01*
X489298Y197102D01*
X488745Y196275D01*
X488551Y195300D01*
X488745Y194325D01*
X489298Y193498D01*
X490125Y192945D01*
X490699Y192831D01*
X490722Y192808D01*
X490961Y192655D01*
X491198Y192497D01*
X491212Y192494D01*
X491224Y192486D01*
X491504Y192436D01*
X491783Y192380D01*
X491797Y192383D01*
X491812Y192381D01*
X492090Y192441D01*
X492326Y192488D01*
X498207Y186607D01*
X498207Y186607D01*
X498571Y186364D01*
X499000Y186278D01*
X499000Y186278D01*
X538215D01*
X538378Y186073D01*
X538376Y185934D01*
X538217Y185504D01*
X537432Y185179D01*
X536625Y184560D01*
X536006Y183753D01*
X535617Y182814D01*
X535484Y181806D01*
Y179837D01*
X535617Y178829D01*
X536006Y177889D01*
X536625Y177082D01*
X537379Y176504D01*
X537372Y176322D01*
X537238Y176004D01*
X513962D01*
X513828Y176322D01*
X513821Y176504D01*
X514575Y177082D01*
X515194Y177889D01*
X515583Y178829D01*
X515716Y179837D01*
Y181806D01*
X515583Y182814D01*
X515194Y183753D01*
X514575Y184560D01*
X513768Y185179D01*
X512829Y185568D01*
X511821Y185701D01*
X510812Y185568D01*
X509873Y185179D01*
X509066Y184560D01*
X508447Y183753D01*
X508058Y182814D01*
X507925Y181806D01*
Y179837D01*
X508058Y178829D01*
X508447Y177889D01*
X509066Y177082D01*
X509820Y176504D01*
X509813Y176322D01*
X509679Y176004D01*
X338367D01*
X338367Y475633D01*
X549733D01*
Y458528D01*
D02*
G37*
G36*
X426202Y341042D02*
X426038Y340858D01*
X425891Y340655D01*
X425761Y340433D01*
X425650Y340191D01*
X425556Y339930D01*
X425480Y339649D01*
X425421Y339348D01*
X425381Y339028D01*
X425358Y338689D01*
X425353Y338330D01*
X422430Y341253D01*
X422789Y341258D01*
X423128Y341281D01*
X423448Y341321D01*
X423749Y341380D01*
X424030Y341456D01*
X424291Y341550D01*
X424533Y341661D01*
X424755Y341791D01*
X424958Y341938D01*
X425142Y342103D01*
X426202Y341042D01*
D02*
G37*
G36*
X362370Y335347D02*
X361946Y335344D01*
X361186Y335293D01*
X360849Y335244D01*
X360542Y335180D01*
X360263Y335102D01*
X360015Y335008D01*
X359795Y334899D01*
X359604Y334775D01*
X359443Y334636D01*
X358736Y335343D01*
X358875Y335504D01*
X358999Y335695D01*
X359108Y335914D01*
X359202Y336163D01*
X359280Y336442D01*
X359344Y336749D01*
X359393Y337086D01*
X359444Y337846D01*
X359447Y338270D01*
X362370Y335347D01*
D02*
G37*
G36*
X404169Y335889D02*
X403668Y335315D01*
X403464Y335042D01*
X403292Y334780D01*
X403151Y334528D01*
X403041Y334285D01*
X402963Y334053D01*
X402916Y333831D01*
X402900Y333618D01*
X401900Y333618D01*
X401884Y333831D01*
X401837Y334053D01*
X401759Y334285D01*
X401649Y334528D01*
X401508Y334780D01*
X401336Y335042D01*
X401132Y335315D01*
X400631Y335889D01*
X400333Y336191D01*
X404467Y336191D01*
X404169Y335889D01*
D02*
G37*
G36*
X509790Y314800D02*
X509733Y314797D01*
X509674Y314785D01*
X509612Y314766D01*
X509548Y314739D01*
X509482Y314704D01*
X509413Y314661D01*
X509343Y314610D01*
X509270Y314551D01*
X509117Y314410D01*
X508410Y315117D01*
X508485Y315194D01*
X508610Y315343D01*
X508661Y315413D01*
X508704Y315482D01*
X508739Y315548D01*
X508766Y315612D01*
X508785Y315673D01*
X508797Y315733D01*
X508800Y315790D01*
X509790Y314800D01*
D02*
G37*
G36*
X550286Y305200D02*
X550243Y305238D01*
X550193Y305272D01*
X550136Y305302D01*
X550071Y305328D01*
X550000Y305350D01*
X549921Y305368D01*
X549835Y305382D01*
X549742Y305392D01*
X549534Y305400D01*
Y306400D01*
X549642Y306402D01*
X549835Y306418D01*
X549921Y306432D01*
X550000Y306450D01*
X550071Y306472D01*
X550136Y306498D01*
X550193Y306528D01*
X550243Y306562D01*
X550286Y306600D01*
Y305200D01*
D02*
G37*
G36*
X464265Y299050D02*
X463712Y299047D01*
X462727Y298989D01*
X462295Y298934D01*
X461904Y298862D01*
X461554Y298773D01*
X461244Y298666D01*
X460975Y298542D01*
X460747Y298400D01*
X460559Y298242D01*
X459852Y298949D01*
X460011Y299137D01*
X460152Y299365D01*
X460276Y299634D01*
X460383Y299943D01*
X460472Y300294D01*
X460545Y300685D01*
X460599Y301116D01*
X460657Y302101D01*
X460660Y302655D01*
X464265Y299050D01*
D02*
G37*
G36*
X501890Y290983D02*
X501816Y290906D01*
X501690Y290757D01*
X501639Y290687D01*
X501596Y290618D01*
X501561Y290552D01*
X501534Y290488D01*
X501515Y290426D01*
X501503Y290367D01*
X501500Y290310D01*
X500510Y291300D01*
X500567Y291303D01*
X500627Y291315D01*
X500688Y291334D01*
X500752Y291361D01*
X500818Y291396D01*
X500887Y291439D01*
X500957Y291490D01*
X501030Y291549D01*
X501183Y291690D01*
X501890Y290983D01*
D02*
G37*
G36*
X495302Y290758D02*
X495318Y290565D01*
X495332Y290479D01*
X495350Y290400D01*
X495372Y290329D01*
X495398Y290264D01*
X495428Y290207D01*
X495462Y290157D01*
X495500Y290114D01*
X494100D01*
X494138Y290157D01*
X494172Y290207D01*
X494202Y290264D01*
X494228Y290329D01*
X494250Y290400D01*
X494268Y290479D01*
X494282Y290565D01*
X494292Y290658D01*
X494300Y290866D01*
X495300D01*
X495302Y290758D01*
D02*
G37*
G36*
X501112Y286488D02*
X501124Y284250D01*
X501108Y284392D01*
X501062Y284520D01*
X500986Y284632D01*
X500880Y284730D01*
X500744Y284812D01*
X500578Y284880D01*
X500381Y284932D01*
X500155Y284970D01*
X499899Y284993D01*
X499612Y285000D01*
Y286500D01*
X501112Y286488D01*
D02*
G37*
G36*
X509091Y283857D02*
X509136Y283730D01*
X509212Y283617D01*
X509318Y283520D01*
X509454Y283437D01*
X509620Y283370D01*
X509817Y283317D01*
X510044Y283280D01*
X510301Y283258D01*
X510588Y283250D01*
Y281750D01*
X510301Y281743D01*
X510044Y281720D01*
X509817Y281682D01*
X509620Y281630D01*
X509454Y281562D01*
X509318Y281480D01*
X509212Y281382D01*
X509136Y281270D01*
X509091Y281142D01*
X509076Y281000D01*
Y284000D01*
X509091Y283857D01*
D02*
G37*
G36*
X364411Y279404D02*
X365125Y278770D01*
X365459Y278513D01*
X365777Y278295D01*
X366079Y278117D01*
X366366Y277978D01*
X366638Y277879D01*
X366894Y277820D01*
X367134Y277800D01*
Y276800D01*
X366894Y276780D01*
X366638Y276721D01*
X366366Y276622D01*
X366079Y276483D01*
X365777Y276305D01*
X365459Y276087D01*
X365125Y275830D01*
X364411Y275196D01*
X364030Y274820D01*
X364030Y279780D01*
X364411Y279404D01*
D02*
G37*
G36*
X481062Y272843D02*
X481028Y272793D01*
X480998Y272736D01*
X480972Y272672D01*
X480950Y272600D01*
X480932Y272521D01*
X480918Y272435D01*
X480908Y272342D01*
X480900Y272134D01*
X479900D01*
X479898Y272242D01*
X479882Y272435D01*
X479868Y272521D01*
X479850Y272600D01*
X479828Y272672D01*
X479802Y272736D01*
X479772Y272793D01*
X479738Y272843D01*
X479700Y272886D01*
X481100D01*
X481062Y272843D01*
D02*
G37*
G36*
X426562Y253343D02*
X426528Y253293D01*
X426498Y253236D01*
X426472Y253171D01*
X426450Y253100D01*
X426432Y253021D01*
X426418Y252935D01*
X426408Y252842D01*
X426400Y252634D01*
X425400D01*
X425398Y252742D01*
X425382Y252935D01*
X425368Y253021D01*
X425350Y253100D01*
X425328Y253171D01*
X425302Y253236D01*
X425272Y253293D01*
X425238Y253343D01*
X425200Y253386D01*
X426600D01*
X426562Y253343D01*
D02*
G37*
G36*
X477070Y248419D02*
X477027Y248457D01*
X476977Y248491D01*
X476920Y248521D01*
X476856Y248547D01*
X476784Y248569D01*
X476705Y248587D01*
X476619Y248601D01*
X476526Y248611D01*
X476318Y248619D01*
Y249619D01*
X476426Y249621D01*
X476619Y249637D01*
X476705Y249651D01*
X476784Y249669D01*
X476856Y249691D01*
X476920Y249717D01*
X476977Y249747D01*
X477027Y249781D01*
X477070Y249819D01*
Y248419D01*
D02*
G37*
G36*
X575060Y248500D02*
X574439Y248497D01*
X572857Y248378D01*
X572422Y248302D01*
X572035Y248207D01*
X571694Y248094D01*
X571399Y247962D01*
X571151Y247812D01*
X570950Y247643D01*
X570243Y248350D01*
X570412Y248551D01*
X570562Y248799D01*
X570694Y249094D01*
X570807Y249435D01*
X570902Y249822D01*
X570978Y250257D01*
X571037Y250738D01*
X571097Y251839D01*
X571100Y252460D01*
X575060Y248500D01*
D02*
G37*
G36*
X493293Y284777D02*
X493293Y284777D01*
X493740Y284478D01*
X494266Y284373D01*
X494266Y284373D01*
X498227D01*
X498354Y284183D01*
X498503Y283947D01*
X498519Y283935D01*
X498531Y283919D01*
X498762Y283764D01*
X498990Y283603D01*
X499010Y283598D01*
X499027Y283587D01*
X499300Y283533D01*
X499572Y283471D01*
X499600Y283470D01*
Y277000D01*
X501152D01*
X501313Y276526D01*
X501177Y276423D01*
X500296Y275274D01*
X499742Y273936D01*
X499552Y272500D01*
X499742Y271064D01*
X500296Y269726D01*
X501177Y268577D01*
X502200Y267793D01*
X502243Y267627D01*
Y267373D01*
X502200Y267207D01*
X501177Y266423D01*
X500296Y265274D01*
X499742Y263936D01*
X499552Y262500D01*
X499742Y261064D01*
X500296Y259726D01*
X501177Y258577D01*
X502200Y257793D01*
X502243Y257627D01*
Y257373D01*
X502200Y257207D01*
X501177Y256423D01*
X500296Y255274D01*
X499742Y253936D01*
X499552Y252500D01*
X499742Y251064D01*
X500296Y249726D01*
X501177Y248577D01*
X502200Y247793D01*
X502243Y247627D01*
Y247373D01*
X502200Y247207D01*
X501177Y246423D01*
X500296Y245274D01*
X499742Y243936D01*
X499675Y243431D01*
X499631Y243313D01*
X499568Y242925D01*
X499407Y242229D01*
X499324Y241962D01*
X499228Y241709D01*
X499128Y241486D01*
X499025Y241294D01*
X498920Y241130D01*
X498815Y240992D01*
X498663Y240825D01*
X498527Y240599D01*
X498502Y240563D01*
X455080D01*
X454745Y241063D01*
X454811Y241395D01*
X454834Y241418D01*
X454987Y241657D01*
X455145Y241894D01*
X455148Y241908D01*
X455156Y241920D01*
X455206Y242200D01*
X455262Y242479D01*
X455259Y242493D01*
X455262Y242508D01*
X455201Y242785D01*
X455154Y243021D01*
X465870Y253737D01*
X466330Y253491D01*
X466244Y253056D01*
X466438Y252080D01*
X466991Y251253D01*
X467817Y250701D01*
X468793Y250507D01*
X469768Y250701D01*
X470275Y251039D01*
X473307Y248007D01*
X473307Y248007D01*
X473671Y247764D01*
X474100Y247678D01*
X474529Y247764D01*
X474588Y247803D01*
X475176Y247611D01*
X475196Y247580D01*
X475220Y247562D01*
X475237Y247537D01*
X475461Y247387D01*
X475679Y247229D01*
X475708Y247222D01*
X475733Y247206D01*
X475997Y247153D01*
X476259Y247090D01*
X476323Y247088D01*
X476809Y246764D01*
X477784Y246570D01*
X478759Y246764D01*
X479586Y247316D01*
X480139Y248143D01*
X480333Y249119D01*
X480139Y250094D01*
X479586Y250921D01*
X478759Y251473D01*
X477784Y251668D01*
X476809Y251473D01*
X476322Y251148D01*
X476290Y251148D01*
X476012Y251087D01*
X475733Y251032D01*
X475721Y251024D01*
X475706Y251020D01*
X475473Y250858D01*
X475237Y250700D01*
X475229Y250688D01*
X475217Y250680D01*
X475063Y250441D01*
X474929Y250240D01*
X474419D01*
X474419Y250240D01*
X474275Y250212D01*
X471320Y253166D01*
X471148Y254031D01*
X470595Y254858D01*
X469768Y255411D01*
X468793Y255605D01*
X468358Y255518D01*
X468111Y255979D01*
X481193Y269061D01*
X481193Y269061D01*
X481436Y269425D01*
X481522Y269854D01*
X481522Y269854D01*
Y270745D01*
X481709Y270871D01*
X481939Y271012D01*
X481957Y271036D01*
X481981Y271053D01*
X482131Y271277D01*
X482289Y271495D01*
X482296Y271524D01*
X482313Y271549D01*
X482366Y271813D01*
X482428Y272075D01*
X482431Y272139D01*
X482755Y272624D01*
X482949Y273600D01*
X482755Y274575D01*
X482202Y275402D01*
X481376Y275955D01*
X480400Y276149D01*
X479424Y275955D01*
X478598Y275402D01*
X478045Y274575D01*
X477851Y273600D01*
X478045Y272624D01*
X478370Y272138D01*
X478371Y272106D01*
X478432Y271828D01*
X478487Y271549D01*
X478495Y271537D01*
X478498Y271522D01*
X478660Y271289D01*
X478819Y271053D01*
X478831Y271044D01*
X478839Y271033D01*
X479078Y270879D01*
X479211Y270790D01*
X479242Y270282D01*
X453568Y244608D01*
X453346Y244652D01*
X453084Y244714D01*
X453055Y244710D01*
X453025Y244715D01*
X452761Y244663D01*
X452495Y244621D01*
X452469Y244605D01*
X452440Y244599D01*
X452216Y244449D01*
X451986Y244308D01*
X451939Y244265D01*
X451367Y244151D01*
X450540Y243598D01*
X449987Y242771D01*
X449793Y241796D01*
X449939Y241063D01*
X449604Y240563D01*
X447690D01*
X447565Y240750D01*
X447424Y240980D01*
X447400Y240998D01*
X447383Y241022D01*
X447159Y241172D01*
X446941Y241330D01*
X446912Y241337D01*
X446887Y241354D01*
X446623Y241407D01*
X446360Y241469D01*
X446296Y241472D01*
X445811Y241796D01*
X444836Y241990D01*
X443860Y241796D01*
X443033Y241243D01*
X442481Y240416D01*
X442287Y239441D01*
X442388Y238929D01*
X441978Y238429D01*
X433267D01*
X433141Y238617D01*
X433000Y238847D01*
X432976Y238864D01*
X432960Y238889D01*
X432735Y239039D01*
X432517Y239197D01*
X432488Y239204D01*
X432463Y239221D01*
X432199Y239273D01*
X431937Y239336D01*
X431873Y239338D01*
X431388Y239663D01*
X430412Y239857D01*
X429437Y239663D01*
X428610Y239110D01*
X428057Y238283D01*
X427863Y237308D01*
X428057Y236332D01*
X428610Y235505D01*
X429437Y234953D01*
X430412Y234759D01*
X431388Y234953D01*
X431874Y235278D01*
X431907Y235279D01*
X432185Y235339D01*
X432463Y235395D01*
X432476Y235403D01*
X432490Y235406D01*
X432723Y235568D01*
X432960Y235726D01*
X432968Y235738D01*
X432979Y235747D01*
X433133Y235986D01*
X433267Y236186D01*
X439500D01*
X439736Y235745D01*
X439556Y235475D01*
X439362Y234500D01*
X439556Y233524D01*
X440108Y232698D01*
X440935Y232145D01*
X441911Y231951D01*
X442886Y232145D01*
X443373Y232470D01*
X443405Y232471D01*
X443683Y232532D01*
X443962Y232587D01*
X443974Y232595D01*
X443988Y232598D01*
X444221Y232761D01*
X444458Y232919D01*
X444466Y232931D01*
X444478Y232939D01*
X444631Y233178D01*
X444765Y233379D01*
X470584D01*
X470820Y232938D01*
X470645Y232676D01*
X470451Y231700D01*
X470645Y230725D01*
X471198Y229898D01*
X472024Y229345D01*
X473000Y229151D01*
X473976Y229345D01*
X474462Y229670D01*
X474495Y229671D01*
X474773Y229732D01*
X475051Y229787D01*
X475063Y229795D01*
X475077Y229798D01*
X475311Y229960D01*
X475548Y230119D01*
X475556Y230131D01*
X475567Y230139D01*
X475721Y230378D01*
X475855Y230578D01*
X491435D01*
X492867Y229147D01*
X492659Y228647D01*
X435373D01*
X435291Y228774D01*
X435196Y228963D01*
X435129Y229022D01*
X435081Y229096D01*
X434906Y229215D01*
X434745Y229355D01*
X434661Y229382D01*
X434588Y229433D01*
X434381Y229476D01*
X434179Y229543D01*
X434091Y229537D01*
X434004Y229555D01*
X433923Y229556D01*
X433816Y229561D01*
X433675Y229655D01*
X432700Y229849D01*
X431725Y229655D01*
X430898Y229102D01*
X430345Y228275D01*
X430151Y227300D01*
X430224Y226934D01*
X429907Y226547D01*
X428760D01*
X428449Y226927D01*
X428255Y227902D01*
X427930Y228389D01*
X427929Y228421D01*
X427868Y228699D01*
X427813Y228978D01*
X427805Y228990D01*
X427802Y229004D01*
X427639Y229238D01*
X427481Y229474D01*
X427469Y229482D01*
X427461Y229494D01*
X427222Y229648D01*
X427022Y229782D01*
Y251245D01*
X427209Y251371D01*
X427439Y251512D01*
X427457Y251536D01*
X427481Y251553D01*
X427631Y251777D01*
X427789Y251995D01*
X427796Y252024D01*
X427813Y252049D01*
X427866Y252313D01*
X427928Y252575D01*
X427931Y252639D01*
X428255Y253124D01*
X428449Y254100D01*
X428255Y255076D01*
X427702Y255902D01*
X426875Y256455D01*
X425900Y256649D01*
X424925Y256455D01*
X424098Y255902D01*
X423545Y255076D01*
X423351Y254100D01*
X423545Y253124D01*
X423870Y252638D01*
X423871Y252606D01*
X423932Y252327D01*
X423987Y252049D01*
X423995Y252037D01*
X423998Y252023D01*
X424160Y251789D01*
X424319Y251553D01*
X424331Y251544D01*
X424339Y251533D01*
X424578Y251379D01*
X424778Y251245D01*
Y229782D01*
X424591Y229656D01*
X424361Y229515D01*
X424343Y229491D01*
X424319Y229474D01*
X424169Y229250D01*
X424011Y229032D01*
X424004Y229003D01*
X423987Y228978D01*
X423935Y228714D01*
X423872Y228452D01*
X423869Y228388D01*
X423732Y228183D01*
X423112Y228095D01*
X414315Y236893D01*
X413951Y237136D01*
X413521Y237222D01*
X413521Y237222D01*
X373165D01*
X367259Y243127D01*
X367296Y243317D01*
X367361Y243544D01*
X367354Y243607D01*
X367367Y243670D01*
X367320Y243902D01*
X367294Y244137D01*
X367263Y244193D01*
X367250Y244255D01*
X367119Y244452D01*
X367004Y244659D01*
X366920Y244757D01*
X366890Y244806D01*
X366840Y244914D01*
X366781Y245083D01*
X366722Y245312D01*
X366668Y245597D01*
X366627Y245920D01*
X366575Y246779D01*
X366573Y247195D01*
X366587Y247300D01*
X366413Y248617D01*
X365905Y249843D01*
X365097Y250897D01*
X364043Y251705D01*
X363261Y252029D01*
Y252571D01*
X364043Y252895D01*
X365097Y253703D01*
X365905Y254757D01*
X366413Y255983D01*
X366587Y257300D01*
X366413Y258617D01*
X365905Y259843D01*
X365097Y260897D01*
X364043Y261705D01*
X363261Y262029D01*
Y262571D01*
X364043Y262895D01*
X365097Y263703D01*
X365905Y264757D01*
X366413Y265983D01*
X366587Y267300D01*
X366413Y268617D01*
X365905Y269843D01*
X365097Y270897D01*
X364043Y271705D01*
X363261Y272029D01*
Y272571D01*
X364043Y272895D01*
X365097Y273703D01*
X365162Y273787D01*
X365457Y274079D01*
X366101Y274651D01*
X366358Y274850D01*
X366598Y275014D01*
X366801Y275133D01*
X366963Y275211D01*
X367074Y275252D01*
X367131Y275265D01*
X367259Y275276D01*
X367487Y275341D01*
X367719Y275387D01*
X367772Y275422D01*
X367833Y275440D01*
X368018Y275587D01*
X368215Y275719D01*
X368251Y275771D01*
X368300Y275811D01*
X368415Y276018D01*
X368523Y276179D01*
X438910D01*
X438910Y276178D01*
X439340Y276264D01*
X439704Y276507D01*
X460017Y296820D01*
X460205Y296783D01*
X460432Y296718D01*
X460496Y296725D01*
X460559Y296712D01*
X460791Y296759D01*
X461025Y296785D01*
X461081Y296816D01*
X461145Y296829D01*
X461341Y296960D01*
X461547Y297074D01*
X461648Y297160D01*
X461701Y297192D01*
X461815Y297245D01*
X461993Y297306D01*
X462232Y297368D01*
X462530Y297422D01*
X462868Y297465D01*
X463761Y297518D01*
X464190Y297520D01*
X464302Y297505D01*
X465644Y297682D01*
X466895Y298200D01*
X467969Y299024D01*
X468378Y299558D01*
X468878Y299388D01*
Y277093D01*
X437644Y245859D01*
X437423Y245903D01*
X437161Y245966D01*
X437131Y245961D01*
X437102Y245967D01*
X436838Y245914D01*
X436572Y245872D01*
X436546Y245856D01*
X436517Y245850D01*
X436293Y245700D01*
X436063Y245559D01*
X436016Y245516D01*
X435443Y245402D01*
X434617Y244849D01*
X434064Y244022D01*
X433870Y243047D01*
X434064Y242072D01*
X434617Y241245D01*
X435443Y240692D01*
X436419Y240498D01*
X437394Y240692D01*
X438221Y241245D01*
X438774Y242072D01*
X438888Y242646D01*
X438911Y242669D01*
X439064Y242908D01*
X439222Y243145D01*
X439225Y243159D01*
X439233Y243171D01*
X439283Y243451D01*
X439339Y243730D01*
X439336Y243744D01*
X439338Y243759D01*
X439278Y244037D01*
X439231Y244273D01*
X470793Y275835D01*
X470793Y275835D01*
X471036Y276199D01*
X471122Y276628D01*
X471122Y276628D01*
Y306241D01*
X471622Y306448D01*
X493293Y284777D01*
D02*
G37*
G36*
X437809Y243730D02*
X437735Y243653D01*
X437609Y243504D01*
X437558Y243434D01*
X437515Y243365D01*
X437480Y243299D01*
X437453Y243235D01*
X437434Y243174D01*
X437422Y243114D01*
X437419Y243057D01*
X436429Y244047D01*
X436486Y244050D01*
X436546Y244062D01*
X436607Y244081D01*
X436671Y244108D01*
X436737Y244143D01*
X436806Y244186D01*
X436876Y244237D01*
X436949Y244296D01*
X437102Y244437D01*
X437809Y243730D01*
D02*
G37*
G36*
X365046Y246729D02*
X365103Y245777D01*
X365157Y245358D01*
X365228Y244980D01*
X365316Y244639D01*
X365421Y244339D01*
X365543Y244077D01*
X365681Y243854D01*
X365837Y243670D01*
X365130Y242963D01*
X364946Y243119D01*
X364723Y243257D01*
X364461Y243379D01*
X364160Y243484D01*
X363821Y243572D01*
X363442Y243643D01*
X363023Y243697D01*
X362070Y243754D01*
X361535Y243757D01*
X365043Y247265D01*
X365046Y246729D01*
D02*
G37*
G36*
X453732Y242479D02*
X453658Y242402D01*
X453532Y242253D01*
X453481Y242183D01*
X453438Y242114D01*
X453403Y242048D01*
X453376Y241984D01*
X453357Y241922D01*
X453346Y241863D01*
X453342Y241806D01*
X452352Y242796D01*
X452409Y242799D01*
X452469Y242811D01*
X452530Y242830D01*
X452594Y242857D01*
X452661Y242892D01*
X452729Y242935D01*
X452800Y242986D01*
X452873Y243045D01*
X453025Y243186D01*
X453732Y242479D01*
D02*
G37*
G36*
X503041Y239071D02*
X502728Y239244D01*
X502428Y239378D01*
X502141Y239475D01*
X501867Y239534D01*
X501607Y239555D01*
X501359Y239537D01*
X501125Y239482D01*
X500904Y239388D01*
X500695Y239257D01*
X500500Y239087D01*
X499793Y239794D01*
X499991Y240012D01*
X500175Y240254D01*
X500345Y240520D01*
X500501Y240810D01*
X500643Y241125D01*
X500771Y241465D01*
X500884Y241829D01*
X501069Y242630D01*
X501140Y243067D01*
X503041Y239071D01*
D02*
G37*
G36*
X445593Y240103D02*
X445643Y240069D01*
X445700Y240039D01*
X445764Y240013D01*
X445836Y239991D01*
X445915Y239973D01*
X446001Y239959D01*
X446094Y239949D01*
X446302Y239941D01*
Y238941D01*
X446194Y238939D01*
X446001Y238923D01*
X445915Y238909D01*
X445836Y238891D01*
X445764Y238869D01*
X445700Y238843D01*
X445643Y238813D01*
X445593Y238779D01*
X445550Y238741D01*
Y240141D01*
X445593Y240103D01*
D02*
G37*
G36*
X431169Y237970D02*
X431219Y237936D01*
X431276Y237906D01*
X431341Y237880D01*
X431412Y237858D01*
X431491Y237840D01*
X431577Y237826D01*
X431670Y237816D01*
X431878Y237808D01*
Y236808D01*
X431771Y236806D01*
X431577Y236790D01*
X431491Y236776D01*
X431412Y236758D01*
X431341Y236736D01*
X431276Y236710D01*
X431219Y236680D01*
X431169Y236646D01*
X431126Y236608D01*
Y238008D01*
X431169Y237970D01*
D02*
G37*
G36*
X442668Y235162D02*
X442718Y235128D01*
X442775Y235098D01*
X442839Y235072D01*
X442911Y235050D01*
X442989Y235032D01*
X443076Y235018D01*
X443169Y235008D01*
X443377Y235000D01*
Y234000D01*
X443269Y233998D01*
X443076Y233982D01*
X442989Y233968D01*
X442911Y233950D01*
X442839Y233928D01*
X442775Y233902D01*
X442718Y233872D01*
X442668Y233838D01*
X442625Y233800D01*
Y235200D01*
X442668Y235162D01*
D02*
G37*
G36*
X412286Y232700D02*
X412243Y232738D01*
X412193Y232772D01*
X412136Y232802D01*
X412072Y232828D01*
X412000Y232850D01*
X411921Y232868D01*
X411835Y232882D01*
X411742Y232892D01*
X411534Y232900D01*
Y233900D01*
X411642Y233902D01*
X411835Y233918D01*
X411921Y233932D01*
X412000Y233950D01*
X412072Y233972D01*
X412136Y233998D01*
X412193Y234028D01*
X412243Y234062D01*
X412286Y234100D01*
Y232700D01*
D02*
G37*
G36*
X501151Y237188D02*
X501399Y237038D01*
X501694Y236906D01*
X502035Y236793D01*
X502422Y236698D01*
X502857Y236621D01*
X503337Y236563D01*
X504439Y236503D01*
X505060Y236500D01*
X501100Y232540D01*
X501097Y233161D01*
X500979Y234743D01*
X500902Y235178D01*
X500807Y235565D01*
X500694Y235906D01*
X500562Y236201D01*
X500412Y236449D01*
X500243Y236650D01*
X500950Y237357D01*
X501151Y237188D01*
D02*
G37*
G36*
X498817Y236131D02*
X498830Y236065D01*
X498959Y235871D01*
X499071Y235667D01*
X499164Y235556D01*
X499205Y235489D01*
X499267Y235351D01*
X499336Y235142D01*
X499405Y234863D01*
X499459Y234553D01*
X499568Y233100D01*
X499570Y232635D01*
X499552Y232500D01*
X499654Y231729D01*
X499181Y231496D01*
X495383Y235293D01*
X495019Y235536D01*
X494590Y235622D01*
X494590Y235622D01*
X445232D01*
X445172Y235686D01*
X445371Y236141D01*
X445434Y236186D01*
X498787D01*
X498817Y236131D01*
D02*
G37*
G36*
X473757Y232362D02*
X473807Y232328D01*
X473864Y232298D01*
X473928Y232272D01*
X474000Y232250D01*
X474079Y232232D01*
X474165Y232218D01*
X474258Y232208D01*
X474466Y232200D01*
Y231200D01*
X474358Y231198D01*
X474165Y231182D01*
X474079Y231168D01*
X474000Y231150D01*
X473928Y231128D01*
X473864Y231102D01*
X473807Y231072D01*
X473757Y231038D01*
X473714Y231000D01*
Y232400D01*
X473757Y232362D01*
D02*
G37*
G36*
X426402Y228285D02*
X426418Y228092D01*
X426432Y228006D01*
X426450Y227927D01*
X426472Y227855D01*
X426498Y227791D01*
X426528Y227734D01*
X426562Y227684D01*
X426600Y227641D01*
X425200D01*
X425238Y227684D01*
X425272Y227734D01*
X425302Y227791D01*
X425328Y227855D01*
X425350Y227927D01*
X425368Y228006D01*
X425382Y228092D01*
X425392Y228185D01*
X425400Y228393D01*
X426400D01*
X426402Y228285D01*
D02*
G37*
G36*
X433278Y228121D02*
X433326Y228101D01*
X433383Y228083D01*
X433446Y228068D01*
X433517Y228055D01*
X433683Y228036D01*
X433879Y228027D01*
X433988Y228026D01*
X434262Y227026D01*
X434154Y227023D01*
X433964Y227004D01*
X433881Y226986D01*
X433806Y226964D01*
X433739Y226937D01*
X433681Y226905D01*
X433630Y226868D01*
X433588Y226826D01*
X433554Y226779D01*
X433238Y228143D01*
X433278Y228121D01*
D02*
G37*
G36*
X469697Y224726D02*
X469654Y224764D01*
X469604Y224798D01*
X469547Y224828D01*
X469482Y224854D01*
X469411Y224876D01*
X469332Y224894D01*
X469246Y224908D01*
X469153Y224918D01*
X468945Y224926D01*
Y225926D01*
X469052Y225928D01*
X469246Y225944D01*
X469332Y225958D01*
X469411Y225976D01*
X469482Y225998D01*
X469547Y226024D01*
X469604Y226054D01*
X469654Y226088D01*
X469697Y226126D01*
Y224726D01*
D02*
G37*
G36*
X495894Y225415D02*
X496043Y225290D01*
X496113Y225239D01*
X496182Y225196D01*
X496248Y225161D01*
X496312Y225134D01*
X496374Y225115D01*
X496433Y225103D01*
X496490Y225100D01*
X495500Y224110D01*
X495497Y224167D01*
X495485Y224226D01*
X495466Y224288D01*
X495439Y224352D01*
X495404Y224418D01*
X495361Y224487D01*
X495310Y224557D01*
X495251Y224630D01*
X495110Y224783D01*
X495817Y225490D01*
X495894Y225415D01*
D02*
G37*
G36*
X485303Y221433D02*
X485315Y221374D01*
X485334Y221312D01*
X485361Y221248D01*
X485396Y221182D01*
X485439Y221113D01*
X485490Y221043D01*
X485549Y220970D01*
X485690Y220817D01*
X484983Y220110D01*
X484906Y220184D01*
X484757Y220310D01*
X484687Y220361D01*
X484618Y220404D01*
X484552Y220439D01*
X484488Y220466D01*
X484426Y220485D01*
X484367Y220497D01*
X484310Y220500D01*
X485300Y221490D01*
X485303Y221433D01*
D02*
G37*
G36*
X602313Y218316D02*
X602533Y218161D01*
X602777Y218025D01*
X603046Y217907D01*
X603338Y217808D01*
X603655Y217728D01*
X603997Y217667D01*
X604363Y217624D01*
X604753Y217600D01*
X605167Y217595D01*
X601952Y214380D01*
X601947Y214794D01*
X601881Y215550D01*
X601819Y215892D01*
X601739Y216209D01*
X601640Y216502D01*
X601522Y216770D01*
X601386Y217014D01*
X601231Y217234D01*
X601057Y217429D01*
X602118Y218490D01*
X602313Y218316D01*
D02*
G37*
G36*
X476362Y214943D02*
X476328Y214893D01*
X476298Y214836D01*
X476272Y214772D01*
X476250Y214700D01*
X476232Y214621D01*
X476218Y214535D01*
X476208Y214442D01*
X476200Y214234D01*
X475200D01*
X475198Y214342D01*
X475182Y214535D01*
X475168Y214621D01*
X475150Y214700D01*
X475128Y214772D01*
X475102Y214836D01*
X475072Y214893D01*
X475038Y214943D01*
X475000Y214986D01*
X476400D01*
X476362Y214943D01*
D02*
G37*
G36*
X482557Y212689D02*
X482607Y212655D01*
X482664Y212625D01*
X482728Y212599D01*
X482800Y212577D01*
X482879Y212559D01*
X482965Y212545D01*
X483058Y212535D01*
X483266Y212527D01*
Y211527D01*
X483158Y211525D01*
X482965Y211509D01*
X482879Y211495D01*
X482800Y211477D01*
X482728Y211455D01*
X482664Y211429D01*
X482607Y211399D01*
X482557Y211365D01*
X482514Y211327D01*
Y212727D01*
X482557Y212689D01*
D02*
G37*
G36*
X448046Y208343D02*
X448012Y208293D01*
X447982Y208236D01*
X447956Y208172D01*
X447934Y208100D01*
X447916Y208021D01*
X447902Y207935D01*
X447892Y207842D01*
X447884Y207634D01*
X446884D01*
X446882Y207742D01*
X446866Y207935D01*
X446852Y208021D01*
X446834Y208100D01*
X446812Y208172D01*
X446786Y208236D01*
X446756Y208293D01*
X446722Y208343D01*
X446684Y208386D01*
X448084D01*
X448046Y208343D01*
D02*
G37*
G36*
X440230Y207050D02*
X440173Y207047D01*
X440114Y207035D01*
X440052Y207016D01*
X439988Y206989D01*
X439922Y206954D01*
X439854Y206911D01*
X439783Y206860D01*
X439710Y206801D01*
X439557Y206660D01*
X438850Y207367D01*
X438925Y207444D01*
X439050Y207593D01*
X439101Y207663D01*
X439144Y207732D01*
X439179Y207798D01*
X439207Y207862D01*
X439226Y207924D01*
X439237Y207983D01*
X439240Y208040D01*
X440230Y207050D01*
D02*
G37*
G36*
X451003Y206133D02*
X451015Y206073D01*
X451034Y206012D01*
X451061Y205948D01*
X451096Y205882D01*
X451139Y205813D01*
X451190Y205743D01*
X451249Y205670D01*
X451390Y205517D01*
X450683Y204810D01*
X450606Y204885D01*
X450457Y205010D01*
X450387Y205061D01*
X450318Y205104D01*
X450252Y205139D01*
X450188Y205166D01*
X450127Y205185D01*
X450067Y205197D01*
X450010Y205200D01*
X451000Y206190D01*
X451003Y206133D01*
D02*
G37*
G36*
X502886Y201100D02*
X502843Y201138D01*
X502793Y201172D01*
X502736Y201202D01*
X502671Y201228D01*
X502600Y201250D01*
X502521Y201268D01*
X502435Y201282D01*
X502342Y201292D01*
X502134Y201300D01*
Y202300D01*
X502242Y202302D01*
X502435Y202318D01*
X502521Y202332D01*
X502600Y202350D01*
X502671Y202372D01*
X502736Y202398D01*
X502793Y202428D01*
X502843Y202462D01*
X502886Y202500D01*
Y201100D01*
D02*
G37*
G36*
X499786Y198400D02*
X499743Y198438D01*
X499693Y198472D01*
X499636Y198502D01*
X499572Y198528D01*
X499500Y198550D01*
X499421Y198568D01*
X499335Y198582D01*
X499242Y198592D01*
X499034Y198600D01*
Y199600D01*
X499142Y199602D01*
X499335Y199618D01*
X499421Y199632D01*
X499500Y199650D01*
X499572Y199672D01*
X499636Y199698D01*
X499693Y199728D01*
X499743Y199762D01*
X499786Y199800D01*
Y198400D01*
D02*
G37*
G36*
X492103Y195233D02*
X492115Y195174D01*
X492134Y195112D01*
X492161Y195048D01*
X492196Y194982D01*
X492239Y194913D01*
X492290Y194843D01*
X492349Y194770D01*
X492490Y194617D01*
X491783Y193910D01*
X491706Y193984D01*
X491557Y194110D01*
X491487Y194161D01*
X491418Y194204D01*
X491352Y194239D01*
X491288Y194266D01*
X491226Y194285D01*
X491167Y194297D01*
X491110Y194300D01*
X492100Y195290D01*
X492103Y195233D01*
D02*
G37*
G36*
X621801Y185333D02*
X622022Y185196D01*
X622281Y185074D01*
X622578Y184970D01*
X622913Y184883D01*
X623287Y184813D01*
X623699Y184759D01*
X624638Y184703D01*
X625165Y184700D01*
X621700Y181235D01*
X621697Y181762D01*
X621641Y182701D01*
X621587Y183113D01*
X621517Y183487D01*
X621430Y183822D01*
X621325Y184119D01*
X621205Y184378D01*
X621067Y184599D01*
X620912Y184781D01*
X621619Y185488D01*
X621801Y185333D01*
D02*
G37*
G36*
X611801D02*
X612022Y185196D01*
X612281Y185074D01*
X612578Y184970D01*
X612913Y184883D01*
X613287Y184813D01*
X613699Y184759D01*
X614638Y184703D01*
X615165Y184700D01*
X611700Y181235D01*
X611697Y181762D01*
X611641Y182701D01*
X611587Y183113D01*
X611517Y183487D01*
X611430Y183822D01*
X611326Y184119D01*
X611204Y184378D01*
X611067Y184599D01*
X610912Y184781D01*
X611619Y185488D01*
X611801Y185333D01*
D02*
G37*
G36*
X591801D02*
X592022Y185196D01*
X592281Y185074D01*
X592578Y184970D01*
X592913Y184883D01*
X593287Y184813D01*
X593699Y184759D01*
X594638Y184703D01*
X595165Y184700D01*
X591700Y181235D01*
X591697Y181762D01*
X591641Y182701D01*
X591587Y183113D01*
X591517Y183487D01*
X591430Y183822D01*
X591326Y184119D01*
X591205Y184378D01*
X591067Y184599D01*
X590912Y184781D01*
X591619Y185488D01*
X591801Y185333D01*
D02*
G37*
G36*
X561801D02*
X562022Y185196D01*
X562281Y185074D01*
X562578Y184970D01*
X562913Y184883D01*
X563287Y184813D01*
X563699Y184759D01*
X564638Y184703D01*
X565165Y184700D01*
X561700Y181235D01*
X561697Y181762D01*
X561641Y182701D01*
X561587Y183113D01*
X561517Y183487D01*
X561430Y183822D01*
X561326Y184119D01*
X561204Y184378D01*
X561067Y184599D01*
X560912Y184781D01*
X561619Y185488D01*
X561801Y185333D01*
D02*
G37*
G36*
X585165Y177700D02*
X584638Y177697D01*
X583699Y177641D01*
X583287Y177587D01*
X582913Y177517D01*
X582578Y177429D01*
X582281Y177325D01*
X582022Y177205D01*
X581801Y177067D01*
X581619Y176912D01*
X580912Y177619D01*
X581067Y177801D01*
X581205Y178022D01*
X581325Y178281D01*
X581430Y178578D01*
X581517Y178913D01*
X581587Y179287D01*
X581641Y179699D01*
X581697Y180638D01*
X581700Y181165D01*
X585165Y177700D01*
D02*
G37*
%LPC*%
G36*
X432400Y461334D02*
X431028Y461199D01*
X429708Y460798D01*
X428492Y460148D01*
X427426Y459274D01*
X426551Y458208D01*
X425902Y456992D01*
X425501Y455672D01*
X425366Y454300D01*
X425501Y452928D01*
X425902Y451608D01*
X426551Y450392D01*
X427426Y449326D01*
X428492Y448452D01*
X429708Y447802D01*
X431028Y447401D01*
X432400Y447266D01*
X433772Y447401D01*
X435092Y447802D01*
X436308Y448452D01*
X437374Y449326D01*
X438248Y450392D01*
X438898Y451608D01*
X439299Y452928D01*
X439434Y454300D01*
X439299Y455672D01*
X438898Y456992D01*
X438248Y458208D01*
X437374Y459274D01*
X436308Y460148D01*
X435092Y460798D01*
X433772Y461199D01*
X432400Y461334D01*
D02*
G37*
G36*
X352400D02*
X351028Y461199D01*
X349708Y460798D01*
X348492Y460148D01*
X347426Y459274D01*
X346551Y458208D01*
X345901Y456992D01*
X345501Y455672D01*
X345366Y454300D01*
X345501Y452928D01*
X345901Y451608D01*
X346551Y450392D01*
X347426Y449326D01*
X348492Y448452D01*
X349708Y447802D01*
X351028Y447401D01*
X352400Y447266D01*
X353772Y447401D01*
X355092Y447802D01*
X356308Y448452D01*
X357374Y449326D01*
X358248Y450392D01*
X358898Y451608D01*
X359299Y452928D01*
X359434Y454300D01*
X359299Y455672D01*
X358898Y456992D01*
X358248Y458208D01*
X357374Y459274D01*
X356308Y460148D01*
X355092Y460798D01*
X353772Y461199D01*
X352400Y461334D01*
D02*
G37*
G36*
X478433Y441395D02*
X469528D01*
Y432490D01*
X478433D01*
Y441395D01*
D02*
G37*
G36*
X463980Y441434D02*
X462818Y441281D01*
X461735Y440832D01*
X460805Y440118D01*
X460091Y439188D01*
X459642Y438105D01*
X459489Y436942D01*
X459642Y435780D01*
X460091Y434697D01*
X460805Y433767D01*
X461735Y433053D01*
X462818Y432604D01*
X463980Y432451D01*
X465143Y432604D01*
X466226Y433053D01*
X467156Y433767D01*
X467870Y434697D01*
X468319Y435780D01*
X468472Y436942D01*
X468319Y438105D01*
X467870Y439188D01*
X467156Y440118D01*
X466226Y440832D01*
X465143Y441281D01*
X463980Y441434D01*
D02*
G37*
G36*
X473980Y431434D02*
X472818Y431281D01*
X471735Y430832D01*
X470805Y430118D01*
X470091Y429188D01*
X469642Y428105D01*
X469489Y426942D01*
X469642Y425780D01*
X470091Y424697D01*
X470805Y423767D01*
X471735Y423053D01*
X472818Y422604D01*
X473980Y422451D01*
X475143Y422604D01*
X476226Y423053D01*
X477156Y423767D01*
X477870Y424697D01*
X478319Y425780D01*
X478472Y426942D01*
X478319Y428105D01*
X477870Y429188D01*
X477156Y430118D01*
X476226Y430832D01*
X475143Y431281D01*
X473980Y431434D01*
D02*
G37*
G36*
X463980D02*
X462818Y431281D01*
X461735Y430832D01*
X460805Y430118D01*
X460091Y429188D01*
X459642Y428105D01*
X459489Y426942D01*
X459642Y425780D01*
X460091Y424697D01*
X460805Y423767D01*
X461735Y423053D01*
X462818Y422604D01*
X463980Y422451D01*
X465143Y422604D01*
X466226Y423053D01*
X467156Y423767D01*
X467870Y424697D01*
X468319Y425780D01*
X468472Y426942D01*
X468319Y428105D01*
X467870Y429188D01*
X467156Y430118D01*
X466226Y430832D01*
X465143Y431281D01*
X463980Y431434D01*
D02*
G37*
G36*
Y391434D02*
X462818Y391281D01*
X461735Y390832D01*
X460805Y390118D01*
X460091Y389188D01*
X459642Y388105D01*
X459489Y386942D01*
X459642Y385780D01*
X460091Y384697D01*
X460805Y383767D01*
X461735Y383053D01*
X462818Y382604D01*
X463980Y382451D01*
X465143Y382604D01*
X466226Y383053D01*
X467156Y383767D01*
X467870Y384697D01*
X468319Y385780D01*
X468472Y386942D01*
X468319Y388105D01*
X467870Y389188D01*
X467156Y390118D01*
X466226Y390832D01*
X465143Y391281D01*
X463980Y391434D01*
D02*
G37*
G36*
Y381434D02*
X462818Y381280D01*
X461735Y380832D01*
X460805Y380118D01*
X460091Y379188D01*
X459642Y378105D01*
X459489Y376942D01*
X459642Y375780D01*
X460091Y374697D01*
X460805Y373767D01*
X461735Y373053D01*
X462818Y372604D01*
X463980Y372451D01*
X465143Y372604D01*
X466226Y373053D01*
X467156Y373767D01*
X467870Y374697D01*
X468319Y375780D01*
X468472Y376942D01*
X468319Y378105D01*
X467870Y379188D01*
X467156Y380118D01*
X466226Y380832D01*
X465143Y381280D01*
X463980Y381434D01*
D02*
G37*
G36*
Y371434D02*
X462818Y371281D01*
X461735Y370832D01*
X460805Y370118D01*
X460091Y369188D01*
X459642Y368105D01*
X459489Y366942D01*
X459642Y365780D01*
X460091Y364697D01*
X460805Y363767D01*
X461735Y363053D01*
X462818Y362604D01*
X463980Y362451D01*
X465143Y362604D01*
X466226Y363053D01*
X467156Y363767D01*
X467870Y364697D01*
X468319Y365780D01*
X468472Y366942D01*
X468319Y368105D01*
X467870Y369188D01*
X467156Y370118D01*
X466226Y370832D01*
X465143Y371281D01*
X463980Y371434D01*
D02*
G37*
G36*
X412400Y342791D02*
X411238Y342638D01*
X410154Y342190D01*
X409224Y341476D01*
X408510Y340546D01*
X408062Y339462D01*
X407909Y338300D01*
X408062Y337138D01*
X408510Y336054D01*
X409224Y335124D01*
X410154Y334411D01*
X411238Y333962D01*
X412400Y333809D01*
X413562Y333962D01*
X414646Y334411D01*
X415576Y335124D01*
X416290Y336054D01*
X416738Y337138D01*
X416891Y338300D01*
X416738Y339462D01*
X416290Y340546D01*
X415576Y341476D01*
X414646Y342190D01*
X413562Y342638D01*
X412400Y342791D01*
D02*
G37*
G36*
X392400D02*
X391238Y342638D01*
X390154Y342190D01*
X389224Y341476D01*
X388510Y340546D01*
X388062Y339462D01*
X387909Y338300D01*
X388062Y337138D01*
X388510Y336054D01*
X389224Y335124D01*
X390154Y334411D01*
X391238Y333962D01*
X392400Y333809D01*
X393562Y333962D01*
X394646Y334411D01*
X395576Y335124D01*
X396289Y336054D01*
X396738Y337138D01*
X396891Y338300D01*
X396738Y339462D01*
X396289Y340546D01*
X395576Y341476D01*
X394646Y342190D01*
X393562Y342638D01*
X392400Y342791D01*
D02*
G37*
G36*
X382400D02*
X381238Y342638D01*
X380154Y342190D01*
X379224Y341476D01*
X378510Y340546D01*
X378062Y339462D01*
X377909Y338300D01*
X378062Y337138D01*
X378510Y336054D01*
X379224Y335124D01*
X380154Y334411D01*
X381238Y333962D01*
X382400Y333809D01*
X383562Y333962D01*
X384646Y334411D01*
X385576Y335124D01*
X386289Y336054D01*
X386738Y337138D01*
X386891Y338300D01*
X386738Y339462D01*
X386289Y340546D01*
X385576Y341476D01*
X384646Y342190D01*
X383562Y342638D01*
X382400Y342791D01*
D02*
G37*
G36*
X372400D02*
X371238Y342638D01*
X370154Y342190D01*
X369224Y341476D01*
X368511Y340546D01*
X368062Y339462D01*
X367909Y338300D01*
X368062Y337138D01*
X368511Y336054D01*
X369224Y335124D01*
X370154Y334411D01*
X371238Y333962D01*
X372400Y333809D01*
X373562Y333962D01*
X374646Y334411D01*
X375576Y335124D01*
X376289Y336054D01*
X376738Y337138D01*
X376891Y338300D01*
X376738Y339462D01*
X376289Y340546D01*
X375576Y341476D01*
X374646Y342190D01*
X373562Y342638D01*
X372400Y342791D01*
D02*
G37*
G36*
X640957Y324402D02*
X639982Y324208D01*
X639155Y323655D01*
X638602Y322828D01*
X638408Y321853D01*
X638602Y320877D01*
X638928Y320391D01*
X638928Y320358D01*
X638989Y320080D01*
X639044Y319801D01*
X639052Y319790D01*
X639055Y319775D01*
X639218Y319542D01*
X639376Y319305D01*
X639388Y319297D01*
X639396Y319285D01*
X639635Y319132D01*
X639836Y318998D01*
Y307501D01*
X639818Y307499D01*
X639657Y307396D01*
X639482Y307318D01*
X639407Y307238D01*
X639314Y307179D01*
X639186Y307058D01*
X639174Y307048D01*
X638946Y307002D01*
X638119Y306450D01*
X637567Y305623D01*
X637373Y304647D01*
X637567Y303672D01*
X638119Y302845D01*
X638946Y302292D01*
X639922Y302098D01*
X640897Y302292D01*
X641724Y302845D01*
X642277Y303672D01*
X642471Y304647D01*
X642471Y304647D01*
X642532Y304713D01*
X642584Y304849D01*
X642662Y304972D01*
X642689Y305125D01*
X642745Y305270D01*
X642740Y305416D01*
X642766Y305560D01*
X642732Y305712D01*
X642728Y305867D01*
X642668Y306000D01*
X642636Y306143D01*
X642547Y306270D01*
X642484Y306411D01*
X642378Y306512D01*
X642294Y306631D01*
X642163Y306715D01*
X642079Y306794D01*
Y318998D01*
X642267Y319124D01*
X642496Y319265D01*
X642514Y319289D01*
X642539Y319305D01*
X642688Y319529D01*
X642847Y319748D01*
X642854Y319777D01*
X642870Y319801D01*
X642923Y320066D01*
X642985Y320328D01*
X642988Y320392D01*
X643312Y320877D01*
X643506Y321853D01*
X643312Y322828D01*
X642760Y323655D01*
X641933Y324208D01*
X640957Y324402D01*
D02*
G37*
G36*
X449443Y307833D02*
X439160D01*
Y297550D01*
X449443D01*
Y307833D01*
D02*
G37*
G36*
X676517Y308128D02*
X675146Y307948D01*
X673869Y307419D01*
X672772Y306577D01*
X671931Y305481D01*
X671402Y304204D01*
X671221Y302833D01*
X671402Y301463D01*
X671931Y300185D01*
X672772Y299089D01*
X673869Y298247D01*
X675146Y297718D01*
X676517Y297538D01*
X677887Y297718D01*
X679164Y298247D01*
X680261Y299089D01*
X681103Y300185D01*
X681632Y301463D01*
X681812Y302833D01*
X681632Y304204D01*
X681103Y305481D01*
X680261Y306577D01*
X679164Y307419D01*
X677887Y307948D01*
X676517Y308128D01*
D02*
G37*
G36*
X668800Y296569D02*
X667364Y296380D01*
X666026Y295826D01*
X664877Y294945D01*
X663996Y293796D01*
X663442Y292458D01*
X663252Y291022D01*
X663442Y289586D01*
X663996Y288248D01*
X664877Y287099D01*
X666026Y286218D01*
X667364Y285664D01*
X668800Y285475D01*
X670236Y285664D01*
X671574Y286218D01*
X672723Y287099D01*
X673604Y288248D01*
X674158Y289586D01*
X674347Y291022D01*
X674158Y292458D01*
X673604Y293796D01*
X672723Y294945D01*
X671574Y295826D01*
X670236Y296380D01*
X668800Y296569D01*
D02*
G37*
G36*
X588700Y285349D02*
X587724Y285155D01*
X586898Y284602D01*
X586345Y283775D01*
X586151Y282800D01*
X586345Y281824D01*
X586898Y280998D01*
X587724Y280445D01*
X588700Y280251D01*
X589676Y280445D01*
X590502Y280998D01*
X590787Y281423D01*
X616230D01*
X621234Y276419D01*
X621194Y276218D01*
X621130Y275971D01*
X621136Y275927D01*
X621128Y275882D01*
X621177Y275633D01*
X621212Y275380D01*
X621024Y274926D01*
X620821Y274773D01*
X620610Y274631D01*
X620584Y274594D01*
X620548Y274567D01*
X620419Y274347D01*
X620305Y274177D01*
X616887D01*
X616602Y274602D01*
X615775Y275155D01*
X614800Y275349D01*
X613825Y275155D01*
X612998Y274602D01*
X612445Y273776D01*
X612251Y272800D01*
X612445Y271825D01*
X612998Y270998D01*
X613825Y270445D01*
X614800Y270251D01*
X615775Y270445D01*
X616602Y270998D01*
X616887Y271424D01*
X620305D01*
X620420Y271253D01*
X620548Y271033D01*
X620584Y271006D01*
X620610Y270969D01*
X620821Y270827D01*
X621024Y270673D01*
X621068Y270662D01*
X621106Y270637D01*
X621355Y270587D01*
X621602Y270523D01*
X621777Y270513D01*
X621878Y270496D01*
X621999Y270461D01*
X622141Y270406D01*
X622304Y270325D01*
X622488Y270215D01*
X622672Y270087D01*
X623157Y269681D01*
X623362Y269480D01*
X623414Y269414D01*
X624405Y268653D01*
X625561Y268174D01*
X626800Y268011D01*
X628040Y268174D01*
X629194Y268653D01*
X630186Y269414D01*
X630947Y270406D01*
X631426Y271561D01*
X631589Y272800D01*
X631426Y274040D01*
X630947Y275195D01*
X630186Y276186D01*
X629194Y276947D01*
X628040Y277426D01*
X626800Y277589D01*
X626717Y277578D01*
X626409Y277582D01*
X626098Y277601D01*
X625821Y277633D01*
X625578Y277677D01*
X625371Y277729D01*
X625198Y277787D01*
X625059Y277849D01*
X624949Y277910D01*
X624865Y277969D01*
X624734Y278086D01*
X624515Y278215D01*
X624303Y278356D01*
X624259Y278365D01*
X624220Y278388D01*
X623968Y278423D01*
X623718Y278472D01*
X623673Y278464D01*
X623629Y278470D01*
X623382Y278406D01*
X623181Y278366D01*
X617773Y283773D01*
X617327Y284072D01*
X616800Y284176D01*
X590787D01*
X590502Y284602D01*
X589676Y285155D01*
X588700Y285349D01*
D02*
G37*
G36*
X668800Y284758D02*
X667364Y284570D01*
X666026Y284015D01*
X664877Y283134D01*
X663996Y281985D01*
X663442Y280647D01*
X663252Y279211D01*
X663442Y277775D01*
X663996Y276437D01*
X664877Y275288D01*
X666026Y274407D01*
X667364Y273853D01*
X668800Y273664D01*
X670236Y273853D01*
X671574Y274407D01*
X672723Y275288D01*
X673604Y276437D01*
X674158Y277775D01*
X674347Y279211D01*
X674158Y280647D01*
X673604Y281985D01*
X672723Y283134D01*
X671574Y284015D01*
X670236Y284570D01*
X668800Y284758D01*
D02*
G37*
G36*
Y272948D02*
X667364Y272759D01*
X666026Y272204D01*
X664877Y271323D01*
X663996Y270174D01*
X663442Y268836D01*
X663252Y267400D01*
X663442Y265964D01*
X663996Y264626D01*
X664877Y263477D01*
X666026Y262596D01*
X667364Y262042D01*
X668800Y261853D01*
X670236Y262042D01*
X671574Y262596D01*
X672723Y263477D01*
X673604Y264626D01*
X674158Y265964D01*
X674347Y267400D01*
X674158Y268836D01*
X673604Y270174D01*
X672723Y271323D01*
X671574Y272204D01*
X670236Y272759D01*
X668800Y272948D01*
D02*
G37*
G36*
X606800Y277589D02*
X605560Y277426D01*
X604405Y276947D01*
X603414Y276186D01*
X602653Y275195D01*
X602174Y274040D01*
X602011Y272800D01*
X602174Y271561D01*
X602653Y270406D01*
X603414Y269414D01*
X604405Y268653D01*
X605560Y268174D01*
X606800Y268011D01*
X606886Y268022D01*
X607259Y268020D01*
X608018Y267972D01*
X608296Y267934D01*
X608543Y267886D01*
X608739Y267833D01*
X608882Y267781D01*
X608971Y267739D01*
X609010Y267714D01*
X609100Y267636D01*
X609309Y267519D01*
X609509Y267386D01*
X609568Y267374D01*
X609621Y267345D01*
X609859Y267317D01*
X610094Y267270D01*
X610153Y267282D01*
X610213Y267274D01*
X610444Y267339D01*
X610636Y267378D01*
X635029Y242985D01*
X635029Y242985D01*
X635393Y242742D01*
X635822Y242656D01*
X635822Y242656D01*
X661043D01*
X661147Y242499D01*
X661259Y242296D01*
X661312Y242253D01*
X661350Y242196D01*
X661543Y242067D01*
X661725Y241922D01*
X661790Y241903D01*
X661846Y241865D01*
X662074Y241820D01*
X662297Y241755D01*
X662442Y241742D01*
X662518Y241723D01*
X662659Y241669D01*
X662856Y241570D01*
X663102Y241422D01*
X663360Y241241D01*
X664464Y240291D01*
X664794Y239964D01*
X664877Y239855D01*
X666026Y238974D01*
X666394Y238822D01*
X666294Y238321D01*
X648053D01*
X648053Y238322D01*
X647624Y238236D01*
X647260Y237993D01*
X629036Y219770D01*
X628844Y219808D01*
X628613Y219873D01*
X628553Y219866D01*
X628494Y219878D01*
X628259Y219831D01*
X628021Y219802D01*
X627968Y219773D01*
X627909Y219761D01*
X627709Y219628D01*
X627500Y219511D01*
X627409Y219433D01*
X627371Y219409D01*
X627282Y219366D01*
X627139Y219314D01*
X626943Y219262D01*
X626696Y219213D01*
X626418Y219175D01*
X625659Y219127D01*
X625286Y219125D01*
X625200Y219136D01*
X623960Y218973D01*
X622806Y218495D01*
X621814Y217734D01*
X621053Y216742D01*
X620574Y215587D01*
X620411Y214347D01*
X620574Y213108D01*
X621053Y211953D01*
X621814Y210961D01*
X622806Y210200D01*
X623960Y209721D01*
X625200Y209558D01*
X626440Y209721D01*
X627595Y210200D01*
X628586Y210961D01*
X629347Y211953D01*
X629826Y213108D01*
X629989Y214347D01*
X629978Y214434D01*
X629980Y214806D01*
X630028Y215565D01*
X630066Y215843D01*
X630114Y216090D01*
X630167Y216286D01*
X630219Y216429D01*
X630262Y216518D01*
X630286Y216557D01*
X630364Y216647D01*
X630481Y216856D01*
X630614Y217056D01*
X630626Y217115D01*
X630655Y217168D01*
X630684Y217406D01*
X630730Y217641D01*
X630719Y217700D01*
X630726Y217760D01*
X630661Y217991D01*
X630622Y218183D01*
X648517Y236079D01*
X664392D01*
X664639Y235578D01*
X663996Y234741D01*
X663442Y233403D01*
X663252Y231967D01*
X663442Y230531D01*
X663996Y229193D01*
X664877Y228044D01*
X666026Y227163D01*
X667364Y226608D01*
X668800Y226419D01*
X670236Y226608D01*
X671574Y227163D01*
X672723Y228044D01*
X673604Y229193D01*
X674158Y230531D01*
X674347Y231967D01*
X674158Y233403D01*
X673604Y234741D01*
X672723Y235890D01*
X672318Y236200D01*
X672285Y236699D01*
X674793Y239207D01*
X674793Y239207D01*
X675036Y239571D01*
X675122Y240000D01*
X675122Y240000D01*
Y250389D01*
X675122Y250389D01*
X675038Y250807D01*
X675070Y250854D01*
X675115Y251082D01*
X675180Y251305D01*
X675173Y251373D01*
X675186Y251439D01*
X675141Y251667D01*
X675116Y251899D01*
X675083Y251958D01*
X675070Y252025D01*
X674941Y252218D01*
X674829Y252422D01*
X674735Y252533D01*
X674695Y252600D01*
X674633Y252738D01*
X674564Y252947D01*
X674495Y253226D01*
X674441Y253536D01*
X674332Y254989D01*
X674330Y255454D01*
X674347Y255589D01*
X674158Y257025D01*
X673604Y258363D01*
X672723Y259512D01*
X671574Y260393D01*
X670236Y260947D01*
X668800Y261137D01*
X667364Y260947D01*
X666026Y260393D01*
X664877Y259512D01*
X663996Y258363D01*
X663442Y257025D01*
X663252Y255589D01*
X663442Y254153D01*
X663996Y252815D01*
X664877Y251666D01*
X666026Y250785D01*
X667364Y250231D01*
X668800Y250042D01*
X668935Y250059D01*
X669415Y250057D01*
X670428Y250001D01*
X670819Y249954D01*
X671163Y249894D01*
X671442Y249825D01*
X671651Y249756D01*
X671789Y249694D01*
X671856Y249654D01*
X671967Y249560D01*
X672171Y249448D01*
X672364Y249319D01*
X672431Y249306D01*
X672491Y249273D01*
X672722Y249248D01*
X672878Y249217D01*
Y248211D01*
X672378Y247965D01*
X671574Y248582D01*
X670236Y249136D01*
X668800Y249325D01*
X667364Y249136D01*
X666026Y248582D01*
X664877Y247701D01*
X664794Y247592D01*
X664453Y247254D01*
X663697Y246578D01*
X663388Y246335D01*
X663102Y246134D01*
X662857Y245986D01*
X662659Y245887D01*
X662518Y245833D01*
X662442Y245814D01*
X662297Y245801D01*
X662074Y245736D01*
X661846Y245691D01*
X661790Y245653D01*
X661725Y245634D01*
X661543Y245489D01*
X661350Y245359D01*
X661312Y245303D01*
X661259Y245261D01*
X661148Y245057D01*
X661043Y244900D01*
X636287D01*
X612222Y268964D01*
X612261Y269156D01*
X612326Y269387D01*
X612319Y269447D01*
X612330Y269506D01*
X612284Y269741D01*
X612255Y269979D01*
X612226Y270032D01*
X612214Y270092D01*
X612081Y270291D01*
X611964Y270500D01*
X611886Y270591D01*
X611862Y270629D01*
X611819Y270718D01*
X611767Y270861D01*
X611714Y271057D01*
X611666Y271304D01*
X611628Y271582D01*
X611580Y272341D01*
X611578Y272714D01*
X611589Y272800D01*
X611426Y274040D01*
X610947Y275195D01*
X610186Y276186D01*
X609195Y276947D01*
X608040Y277426D01*
X606800Y277589D01*
D02*
G37*
G36*
X668800Y225703D02*
X667364Y225514D01*
X666026Y224960D01*
X664877Y224078D01*
X663996Y222930D01*
X663442Y221592D01*
X663252Y220156D01*
X663442Y218720D01*
X663996Y217382D01*
X664877Y216233D01*
X666026Y215352D01*
X667364Y214797D01*
X668800Y214608D01*
X670236Y214797D01*
X671574Y215352D01*
X672723Y216233D01*
X673604Y217382D01*
X674158Y218720D01*
X674347Y220156D01*
X674158Y221592D01*
X673604Y222930D01*
X672723Y224078D01*
X671574Y224960D01*
X670236Y225514D01*
X668800Y225703D01*
D02*
G37*
G36*
Y213892D02*
X667364Y213703D01*
X666026Y213149D01*
X664877Y212267D01*
X663996Y211119D01*
X663442Y209781D01*
X663252Y208345D01*
X663442Y206909D01*
X663996Y205571D01*
X664877Y204422D01*
X666026Y203541D01*
X667364Y202986D01*
X668800Y202797D01*
X670236Y202986D01*
X671574Y203541D01*
X672723Y204422D01*
X673604Y205571D01*
X674158Y206909D01*
X674347Y208345D01*
X674158Y209781D01*
X673604Y211119D01*
X672723Y212267D01*
X671574Y213149D01*
X670236Y213703D01*
X668800Y213892D01*
D02*
G37*
G36*
Y202081D02*
X667364Y201892D01*
X666026Y201338D01*
X664877Y200457D01*
X663996Y199308D01*
X663442Y197970D01*
X663252Y196534D01*
X663442Y195098D01*
X663996Y193760D01*
X664877Y192611D01*
X666026Y191730D01*
X667364Y191175D01*
X668800Y190986D01*
X670236Y191175D01*
X671574Y191730D01*
X672723Y192611D01*
X673604Y193760D01*
X674158Y195098D01*
X674347Y196534D01*
X674158Y197970D01*
X673604Y199308D01*
X672723Y200457D01*
X671574Y201338D01*
X670236Y201892D01*
X668800Y202081D01*
D02*
G37*
G36*
X676517Y190018D02*
X675146Y189838D01*
X673869Y189309D01*
X672772Y188467D01*
X671931Y187371D01*
X671402Y186093D01*
X671221Y184723D01*
X671402Y183352D01*
X671931Y182075D01*
X672772Y180979D01*
X673869Y180137D01*
X675146Y179608D01*
X676517Y179428D01*
X677887Y179608D01*
X679164Y180137D01*
X680261Y180979D01*
X681103Y182075D01*
X681632Y183352D01*
X681812Y184723D01*
X681632Y186093D01*
X681103Y187371D01*
X680261Y188467D01*
X679164Y189309D01*
X677887Y189838D01*
X676517Y190018D01*
D02*
G37*
%LPD*%
G36*
X641619Y321096D02*
X641585Y321046D01*
X641555Y320989D01*
X641529Y320924D01*
X641507Y320853D01*
X641489Y320774D01*
X641475Y320688D01*
X641465Y320595D01*
X641457Y320387D01*
X640457D01*
X640455Y320494D01*
X640439Y320688D01*
X640425Y320774D01*
X640407Y320853D01*
X640385Y320924D01*
X640359Y320989D01*
X640329Y321046D01*
X640295Y321096D01*
X640257Y321139D01*
X641657D01*
X641619Y321096D01*
D02*
G37*
G36*
X641237Y305526D02*
X641162Y305448D01*
X641041Y305299D01*
X640994Y305228D01*
X640956Y305159D01*
X640927Y305093D01*
X640907Y305029D01*
X640896Y304966D01*
X640894Y304906D01*
X640901Y304848D01*
X639740Y305631D01*
X639788Y305643D01*
X639839Y305662D01*
X639893Y305688D01*
X639951Y305721D01*
X640012Y305762D01*
X640144Y305864D01*
X640215Y305926D01*
X640368Y306071D01*
X641237Y305526D01*
D02*
G37*
G36*
X623913Y276769D02*
X624133Y276614D01*
X624377Y276478D01*
X624646Y276360D01*
X624938Y276261D01*
X625255Y276181D01*
X625597Y276119D01*
X625963Y276077D01*
X626353Y276053D01*
X626767Y276048D01*
X624480Y273761D01*
Y270526D01*
X624184Y270816D01*
X623602Y271303D01*
X623317Y271501D01*
X623036Y271669D01*
X622759Y271806D01*
X622486Y271913D01*
X622217Y271989D01*
X621952Y272035D01*
X621691Y272050D01*
Y273550D01*
X621952Y273565D01*
X622217Y273611D01*
X622486Y273687D01*
X622759Y273794D01*
X623036Y273931D01*
X623317Y274098D01*
X623447Y274189D01*
X623419Y274344D01*
X623339Y274662D01*
X623240Y274954D01*
X623123Y275223D01*
X622986Y275467D01*
X622831Y275687D01*
X622657Y275882D01*
X623718Y276943D01*
X623913Y276769D01*
D02*
G37*
G36*
X610051Y272288D02*
X610105Y271431D01*
X610156Y271054D01*
X610224Y270710D01*
X610307Y270401D01*
X610406Y270126D01*
X610522Y269886D01*
X610653Y269679D01*
X610801Y269506D01*
X610094Y268799D01*
X609921Y268947D01*
X609714Y269078D01*
X609474Y269194D01*
X609199Y269293D01*
X608889Y269376D01*
X608546Y269444D01*
X608169Y269495D01*
X607312Y269549D01*
X606833Y269552D01*
X610048Y272767D01*
X610051Y272288D01*
D02*
G37*
G36*
X672803Y254928D02*
X672922Y253346D01*
X672998Y252911D01*
X673093Y252524D01*
X673206Y252183D01*
X673338Y251888D01*
X673488Y251640D01*
X673657Y251439D01*
X672950Y250732D01*
X672749Y250901D01*
X672501Y251051D01*
X672206Y251183D01*
X671865Y251296D01*
X671478Y251391D01*
X671043Y251468D01*
X670562Y251526D01*
X669461Y251587D01*
X668840Y251589D01*
X672800Y255549D01*
X672803Y254928D01*
D02*
G37*
G36*
X665943Y240978D02*
X665503Y241415D01*
X664299Y242450D01*
X663938Y242703D01*
X663597Y242910D01*
X663276Y243071D01*
X662974Y243186D01*
X662693Y243255D01*
X662431Y243278D01*
X662431Y244278D01*
X662693Y244301D01*
X662974Y244370D01*
X663276Y244485D01*
X663597Y244646D01*
X663938Y244853D01*
X664299Y245106D01*
X664680Y245405D01*
X665503Y246141D01*
X665943Y246578D01*
X665943Y240978D01*
D02*
G37*
G36*
X629201Y217641D02*
X629053Y217468D01*
X628922Y217262D01*
X628806Y217021D01*
X628707Y216746D01*
X628624Y216437D01*
X628556Y216093D01*
X628505Y215716D01*
X628451Y214859D01*
X628448Y214380D01*
X625233Y217595D01*
X625712Y217598D01*
X626569Y217652D01*
X626946Y217704D01*
X627289Y217771D01*
X627599Y217854D01*
X627874Y217954D01*
X628114Y218069D01*
X628321Y218201D01*
X628494Y218348D01*
X629201Y217641D01*
D02*
G37*
D14*
X500500Y290300D02*
X516100Y305900D01*
X551000D01*
X494800Y300800D02*
X509800Y315800D01*
X494800Y289400D02*
Y300800D01*
X480400Y269854D02*
Y273600D01*
X452342Y241796D02*
X480400Y269854D01*
X491900Y231700D02*
X498400Y225200D01*
X473000Y231700D02*
X491900D01*
X441911Y234500D02*
X494590D01*
X501700Y227390D01*
X498400Y225200D02*
X581200D01*
X625200Y181200D01*
X433796Y225426D02*
X470411D01*
X433570Y225200D02*
X433796Y225426D01*
X431830Y225200D02*
X433570D01*
X431604Y225426D02*
X431830Y225200D01*
X427369Y225426D02*
X431604D01*
X426770Y224827D02*
X427369Y225426D01*
X425030Y224827D02*
X426770D01*
X424431Y225426D02*
X425030Y224827D01*
X424196Y225426D02*
X424431D01*
X413521Y236100D02*
X424196Y225426D01*
X450300Y205900D02*
X454400Y201800D01*
X450300Y205900D02*
Y206000D01*
X454400Y201800D02*
X503600D01*
X450100Y206200D02*
X450300Y206000D01*
X450000Y206200D02*
X450100D01*
X447384Y205846D02*
X454130Y199100D01*
X447384Y205846D02*
Y209100D01*
X454130Y199100D02*
X500500D01*
X444836Y239441D02*
X500147D01*
X503206Y242500D01*
X356600Y339916D02*
X419546Y402862D01*
X356600Y334763D02*
Y339916D01*
X345247Y323409D02*
X356600Y334763D01*
X425900Y226927D02*
Y254100D01*
X430304Y237200D02*
X430412Y237308D01*
X500292D02*
X505100Y232500D01*
X430412Y237308D02*
X500292D01*
X372700Y236100D02*
X413521D01*
X469844Y253056D02*
X474100Y248800D01*
X468793Y253056D02*
X469844D01*
X474100Y248800D02*
X474419Y249119D01*
X477784D01*
X639922Y304647D02*
Y304918D01*
X640957Y305953D01*
Y321853D01*
X361500Y247300D02*
X372700Y236100D01*
X449600Y327800D02*
X469100Y308300D01*
X405800Y327800D02*
X449600D01*
X402400Y331200D02*
X405800Y327800D01*
X402400Y331200D02*
Y338300D01*
X469100Y307500D02*
Y308300D01*
X433490Y201300D02*
X440240Y208050D01*
X348900Y201300D02*
X433490D01*
X345247Y204953D02*
X348900Y201300D01*
X432926Y227526D02*
X493074D01*
X432700Y227300D02*
X432926Y227526D01*
X493074D02*
X496500Y224100D01*
X577810Y218590D02*
X615200Y181200D01*
X564373Y212027D02*
X595200Y181200D01*
X436419Y243047D02*
X470000Y276628D01*
Y306600D01*
X469100Y307500D02*
X470000Y306600D01*
X438910Y277300D02*
X464302Y302691D01*
X361500Y277300D02*
X438910D01*
X364000Y232200D02*
X365200Y233400D01*
X350000Y232200D02*
X364000D01*
X365200Y233400D02*
X413000D01*
X346847Y235353D02*
X350000Y232200D01*
X346847Y235353D02*
Y322631D01*
X345247Y204953D02*
Y323409D01*
X362400Y337203D02*
Y338300D01*
X549685Y176590D02*
X580590D01*
X538875Y187400D02*
X549685Y176590D01*
X499000Y187400D02*
X538875D01*
X491100Y195300D02*
X499000Y187400D01*
X580590Y176590D02*
X585200Y181200D01*
X356600Y332384D02*
Y332500D01*
X346847Y322631D02*
X356600Y332384D01*
Y332500D02*
X362400Y338300D01*
X503206Y242500D02*
X505100D01*
X419546Y402862D02*
X469900D01*
X473980Y406942D01*
X475700Y210000D02*
Y215700D01*
Y210000D02*
X479100Y206600D01*
X539800D01*
X565200Y181200D01*
X481800Y212027D02*
X564373D01*
X487210Y218590D02*
X577810D01*
X484300Y221500D02*
X487210Y218590D01*
X625200Y214347D02*
X648053Y237200D01*
X671200D01*
X674000Y240000D01*
Y250389D01*
X668800Y255589D02*
X674000Y250389D01*
X501700Y227390D02*
X549990D01*
X575100Y252500D01*
X635822Y243778D02*
X668800D01*
X606800Y272800D02*
X635822Y243778D01*
D51*
X501850Y285750D02*
X505100Y282500D01*
X494266Y285750D02*
X501850D01*
X437403Y342613D02*
X494266Y285750D01*
X426713Y342613D02*
X437403D01*
X422400Y338300D02*
X426713Y342613D01*
X422400Y338300D02*
Y338300D01*
X505100Y282500D02*
X548100D01*
X429411Y222728D02*
X456270D01*
X588700Y282800D02*
X616800D01*
X626800Y272800D01*
X577600Y312700D02*
X583600Y306700D01*
Y235947D02*
Y306700D01*
Y235947D02*
X605200Y214347D01*
X463980Y416942D02*
X473980D01*
X614800Y272800D02*
X626800D01*
X473980Y416942D02*
X480000Y410923D01*
Y362300D02*
Y410923D01*
Y362300D02*
X529600Y312700D01*
X577600D01*
D54*
X606800Y272800D02*
D03*
X626800D02*
D03*
X605200Y214347D02*
D03*
X625200D02*
D03*
D55*
X668800Y291022D02*
D03*
Y279211D02*
D03*
Y267400D02*
D03*
Y255589D02*
D03*
Y243778D02*
D03*
Y231967D02*
D03*
Y220156D02*
D03*
Y208345D02*
D03*
Y196534D02*
D03*
X505100Y272500D02*
D03*
Y262500D02*
D03*
Y252500D02*
D03*
Y242500D02*
D03*
Y232500D02*
D03*
X575100Y272500D02*
D03*
Y262500D02*
D03*
Y252500D02*
D03*
Y242500D02*
D03*
D56*
X676517Y184723D02*
D03*
Y302833D02*
D03*
D57*
X361500Y207300D02*
D03*
D58*
X351500D02*
D03*
X361500Y217300D02*
D03*
X351500D02*
D03*
X361500Y227300D02*
D03*
X351500D02*
D03*
X361500Y237300D02*
D03*
X351500D02*
D03*
X361500Y247300D02*
D03*
X351500D02*
D03*
X361500Y257300D02*
D03*
X351500D02*
D03*
X361500Y267300D02*
D03*
X351500D02*
D03*
X361500Y277300D02*
D03*
X351500D02*
D03*
X361500Y287300D02*
D03*
X351500D02*
D03*
X361500Y297300D02*
D03*
X351500D02*
D03*
D59*
X464302Y302691D02*
D03*
D60*
X444302D02*
D03*
D61*
X505100Y282500D02*
D03*
D62*
X539380Y180821D02*
D03*
X511821D02*
D03*
D63*
X535442Y192239D02*
D03*
X515758D02*
D03*
D64*
X645200Y181200D02*
D03*
X635200D02*
D03*
X625200D02*
D03*
X615200D02*
D03*
X605200D02*
D03*
X595200D02*
D03*
X585200D02*
D03*
X575200D02*
D03*
X565200D02*
D03*
D65*
X555200D02*
D03*
D66*
X432400Y454300D02*
D03*
X352400D02*
D03*
D67*
X372400Y338300D02*
D03*
X432400D02*
D03*
X422400D02*
D03*
X412400D02*
D03*
X402400D02*
D03*
X392400D02*
D03*
X382400D02*
D03*
X362400D02*
D03*
X463980Y366942D02*
D03*
X473980D02*
D03*
X463980Y376942D02*
D03*
X473980D02*
D03*
X463980Y386942D02*
D03*
X473980D02*
D03*
X463980Y396942D02*
D03*
X473980D02*
D03*
X463980Y406942D02*
D03*
X473980D02*
D03*
X463980Y416942D02*
D03*
X473980D02*
D03*
X463980Y426942D02*
D03*
X473980D02*
D03*
X463980Y436942D02*
D03*
D68*
X352400Y338300D02*
D03*
D69*
X473980Y436942D02*
D03*
D70*
X537327Y449527D02*
D03*
X536972Y354362D02*
D03*
X684000Y402000D02*
D03*
D71*
X500500Y290300D02*
D03*
X480400Y273600D02*
D03*
X494800Y289400D02*
D03*
X509800Y315800D02*
D03*
X473000Y231700D02*
D03*
X456270Y222728D02*
D03*
X429411D02*
D03*
X450000Y206200D02*
D03*
X430412Y237308D02*
D03*
X425900Y226927D02*
D03*
Y254100D02*
D03*
X444836Y239441D02*
D03*
X432700Y227300D02*
D03*
X413000Y233400D02*
D03*
X452342Y241796D02*
D03*
X481800Y212027D02*
D03*
X468793Y253056D02*
D03*
X441911Y234500D02*
D03*
X440240Y208050D02*
D03*
X447384Y209100D02*
D03*
X484300Y221500D02*
D03*
X491100Y195300D02*
D03*
X436419Y243047D02*
D03*
X475700Y215700D02*
D03*
X470411Y225426D02*
D03*
X477784Y249119D02*
D03*
X639922Y304647D02*
D03*
X640957Y321853D02*
D03*
X588700Y282800D02*
D03*
X548100Y282500D02*
D03*
X551000Y305900D02*
D03*
X503600Y201800D02*
D03*
X500500Y199100D02*
D03*
X614800Y272800D02*
D03*
X496500Y224100D02*
D03*
M02*
